<svg height="512" width="512" xmlns="http://www.w3.org/2000/svg" xmlns:xlink="http://www.w3.org/1999/xlink"><linearGradient id="a" gradientUnits="userSpaceOnUse" x1="103.67804" x2="106.89812" y1="520.51202" y2="513.40704"><stop offset="0" stop-color="#06b5b6"/><stop offset="1" stop-color="#03aaca"/></linearGradient><linearGradient id="b" gradientUnits="userSpaceOnUse" x1="203.68181" x2="217.31819" y1="576.0824" y2="562.9176"><stop offset="0" stop-color="#058fa1"/><stop offset="1" stop-color="#32bdbf"/></linearGradient><linearGradient id="c" gradientUnits="userSpaceOnUse" x1="1019.0104" x2="1027.0641" y1="593.70422" y2="594.68329"><stop offset="0" stop-color="#fdec92"/><stop offset="1" stop-color="#fbd99c"/></linearGradient><linearGradient id="d" gradientUnits="userSpaceOnUse" x1="155.13034" x2="152.20244" y1="513.01416" y2="524.28119"><stop offset="0" stop-color="#018f9e"/><stop offset="1" stop-color="#08aebb"/></linearGradient><linearGradient id="e" gradientUnits="userSpaceOnUse" x1="621.99957" x2="578.49036" y1="817.48529" y2="817.52356"><stop offset="0" stop-color="#ba0000"/><stop offset="1" stop-color="#fd1600"/></linearGradient><linearGradient id="f" gradientUnits="userSpaceOnUse" x1="1019.5566" x2="1025.9479" y1="268.52682" y2="268.46857"><stop offset="0" stop-color="#f8dc6f"/><stop offset="1" stop-color="#fde7ac"/></linearGradient><linearGradient id="g" gradientUnits="userSpaceOnUse" x1="733.8382" x2="444.22729" y1="608.67126" y2="622.68225"><stop offset="0" stop-color="#ffff87"/><stop offset="1" stop-color="#fbfdb9"/></linearGradient><linearGradient id="h" gradientUnits="userSpaceOnUse" x1="411.22998" x2="422.36871" y1="929.59033" y2="998.21381"><stop offset="0" stop-color="#fee281"/><stop offset="1" stop-color="#ffffbe"/></linearGradient><linearGradient id="i" gradientUnits="userSpaceOnUse" x1="1026.1416" x2="1020.7778" y1="860.29944" y2="859.18378"><stop offset="0" stop-color="#fdfbb8"/><stop offset="1" stop-color="#edeee2"/></linearGradient><g transform="scale(.5)"><path d="m0 39.125v-39.125h2.5 347.034 76.466 78.5 209.812 72.122 82.598 121.533 31.435 2v530.138 7.312 25.13 61.92 105.858 7.741 23.548 40.868 43.351 28.87 147.264 2h-16.1-62.824-180.716-104.795-33.502-34.129-31.871-65.422-43.719-34.062-56.36-10.489-9.645-36.866-29.139-23.303-251.058v-2-29.125-116.907-22.365-118.055-19.104-63.942-12.504-18.595-44.798-17.661-38.802-15.6-24.097-8.507-16.856-32.217-10.71-203.069-43.03-105.056z"/><path d="m0 471.938 1.24133.507-.15118 8.063-1.09015-.063z" fill="#fdfabc"/><path d="m965.397 607.25c1.795-.338 4.835-.541 6.507.116l-1.154.87c-1.949.44-3.539.775-5.43.014z" fill="#080c0b"/><path d="m131.878 769.697.283-.93c.626-1.707 1.722-1.76 3.292-2.447l1.849.947.366 1.148z" fill="#13c0b4"/><path d="m196.102 84.75 1.013.5.635 1.9197c-.434 1.5103-.615 1.3884-2 2.1907-1.403-.3438-1.322-.4018-2.145-1.6104.636-1.8155.993-1.9075 2.497-3z" fill="#0cb7c3"/><path d="m41.4996 278.75 1.4117-.112c.9926 1.233 1.2805 1.496 1.5277 3.112l-1.2039 1c-1.6598.058-1.7303-.054-3.1162-1l-.1445-1.5z" fill="#4efef8"/><path d="m60.4607 541.25c1.0016-.071.7859-.187 1.5375.117l7.4784 3.096.2734.906c-3.3322-.282-6.6668-.866-9.2466-3.119z" fill="#080c0b"/><path d="m0 412.155 1.55718 1.036-.04834 10.776-1.50884-1.102z" fill="#fdf567"/><path d="m890.054 19.75c.85-.1078 1.075.0398 1.843.364.444.6068.778 1.0845.908 1.8427.236 1.3793.215 1.4681-.555 2.5395-1.414.0377-2.274.1211-3.486-.7462.143-1.6906.46-2.5182 1.29-4z" fill="#0cb7c3"/><path d="m947.127 70.75c.735-.167 1.375-.0979 2.123-.0647 1.141 1.2423 1.216 1.1092 1.147 2.7732l-1.654 1.2915c-.787.3444-1.174.4536-1.993.5605-.561-.9723-.975-1.5151-.964-2.6756.009-1.0006.664-1.24 1.341-1.8849z" fill="#53ecee"/><path d="m184.386 769.573c2.973.016 5.757.294 8.693.755l-.68 1.835-11.967-1.034c1.041-.143 2.078-.256 3.083-.578.741-.238.447-.102.871-.978z" fill="#13c0b4"/><path d="m-0 639.998 1.44685-1.994.10943 13.938-1.55628.56z" fill="#fdf567"/><path d="m91.0344 41.25.9789-.1077c1.4313.6172 1.4539.6853 2.2367 2.0418-.2655 1.6811-.2293 1.5527-1.6059 2.5659l-2.1441.2973c-1.0391-.772-1.0773-.8109-1.4547-2.0473.5787-1.5828.6433-1.7526 1.9891-2.75z" fill="#0cb7c3"/><path d="m172.668 768.438 11.718 1.135c-.424.876-.13.74-.871.978-1.005.322-2.042.435-3.083.578l-7.362-.676z" fill="#11d1d5"/><path d="m937.569 571.557c-.899.284-.409.255-1.472-.057-.407-2.713.777-6.772 1.653-9.356 1.262-.717 1.687-.488 3.097-.325-1.683 1.515-2.353 5.827-2.956 8.016-.179.65-.144.454-.605 1.178z" fill="#b30402"/><path d="m145.833 766.623 13.641 1.001c-.593.347-1.24.64-1.724 1.131l.984.402-.054.374c-3.567.074-7.183-.515-10.722-.932z" fill="#13c0b4"/><path d="m124.319 645.477-2.326-5.497c2.495.374 7.371.632 8.856 2.602-2.67-.078-4.311 1.482-6.53 2.895z" fill="#006f7c"/><path d="m914.497 693.733c3.092-2.542 6.118-4.573 9.591-6.561-1.768 2.718-4.876 7.543-8.122 8.566z" fill="#006f7c"/><path d="m834.37 712.75c2.32.245 5.467 2.818 7.248 4.212l-.118.535-1.75.367c-2.223-.047-5.574-2.1-7.7-3.009l-.106-.605z" fill="#fc1b01"/><path d="m132.708 765.509c4.264.172 8.984.125 13.125 1.114l2.125 1.976-10.29-.184-.366-1.148-1.849-.947-.984.314z" fill="#21c2af"/><path d="m-0 621.403 1.48861-.824c-.00088 5.596.60432 11.914-.04176 17.425l-1.44685 1.994z" fill="#faf095"/><path d="m861.908 716.25.757-.133c1.154.687 1.323.635 1.752 1.883l-4.649 6.25-.514.115c-1.017-.858-1.104-1.646-1.546-2.865.852-2.152 2.603-3.628 4.2-5.25z" fill="#dc0500"/><path d="m235.326 778.893c.668-.544.381-.397 1.148-.7l.526-.193c.39-.766.151-.344.75-1.245l1.68-.139 9.885 7.077z" fill="#11d1d5"/><path d="m0 716.444 1.6803.928-.17581 17.241-.894646 1.148-.609844-.213z" fill="#edebdb"/><path d="m844.944 702.75c2.74-.117 7.515 3.028 9.948 4.5-.219 1.448-.583 1.922-1.492 3-.249.029-1.283.101-1.45 0-.674-.407-2.148-2.819-2.759-3.515-1.308-1.49-2.92-2.241-4.683-3.055l-.758-.346z" fill="#dc0500"/><path d="m75.9183 364.75c.9043-.12 1.0248-.077 1.8317.238.8503 1.187 1.4558 2.032 1.7216 3.512-.6248 1.31-1.5423 1.787-2.7216 2.526-.8406.296-.345.228-1.5-.046-1.1844-1.41-1.6731-2.128-1.8399-3.98.6416-1.387 1.2122-1.499 2.5082-2.25z" fill="#0faab8"/><path d="m159.474 767.624c4.161.306 9.081 1.166 13.194.814l.402 2.015c-4.638.058-9.824-.108-14.39-.922l.054-.374-.984-.402c.484-.491 1.131-.784 1.724-1.131z" fill="#21c2af"/><path d="m954.444 652.712c-6.295-.454-12.32.861-18.582 1.283l7.919-2.82c1.937-.557 4.961-1.266 6.965-1.108 1.156.092 3.099 1.448 4.149 2.032z" fill="#dc0500"/><path d="m0 455.082c1.39334-2.106 1.21503-5.835 1.42535-8.338.01744 3.305.62218 24.569-.18402 25.701l-1.24133-.507z" fill="#faf095"/><path d="m990.234 610.75.863.011c2.25 2.942 6.317 7.365 6.153 11.143-1.051-.658-1.242-.585-2.5-.535-1.545-3.532-5.107-6.703-4.516-10.619z" fill="#dc0500"/><path d="m703.273 797.25c3.142-.687 6.734-.042 9.897.312l-3.38 2.885c-.412.328-.849.72-1.351.909-1.096.411-2.87.251-3.952-.214-1.429-.613-1.913-.979-2.469-2.392z" fill="#dc0500"/><path d="m112.138 202.75.584-.041c1.187.15 2.027.739 2.861 1.541.84.806 1.127 1.543.953 2.75-.202 1.409-1.009 1.952-2.05 2.75-1.282.218-1.816.55-2.89-.354-1.363-1.149-1.527-2.224-1.712-3.896.558-1.486 1.02-1.857 2.254-2.75z" fill="#fbdb80"/><path d="m15.5503 691.271c2.6407-1.167 5.4191-1.215 7.8989-2.271l.5423-1.514.8248-.236c.3379 1.082.5835 1.778.3684 2.908-2.7934 1.954-7.6771 4.776-11.0321 5.144l-1.5652-1.28 1.0431-.958.6195.085c.3002-.878.0919-.526.775-1.304z" fill="#048690"/><path d="m66.6527 269.75c.6789-.159 1.4019-.149 2.0973-.192 1.5635.971 1.9402 1.523 2.7162 3.192-.1605 2.182-.3065 2.171-1.7162 3.683-1.3013.19-2.6285.469-3.75-.439-1.0503-.849-1.3059-1.717-1.4644-2.994.3381-1.565 1.0182-2.186 2.1171-3.25z" fill="#faf095"/><path d="m0 422.865 1.50884 1.102-.08349 22.777c-.21032 2.503-.03201 6.232-1.42535 8.338z" fill="#e7e2a8"/><path d="m155.427 782.477c2.997-.642 5.811-.364 8.823-.607 4.464-.361 10.921-1.973 15 .651l2.377 1.897.205.166c-5.285-.114-11.589-.063-16.664-1.633-2.946-.912-6.645-.523-9.741-.474z" fill="#048690"/><path d="m924.755 292.25 1.495-.308c1.154.405 1.929.639 2.724 1.609.682.83.771 1.649.542 2.699-.358 1.636-.999 2.311-2.266 3.304-2.269.042-2.966-.342-4.609-1.804l-.154-2.25c.213-1.656 1.07-2.273 2.268-3.25z" fill="#ffdf20"/><path d="m700.926 14.75c1.321-.1407 2.21-.0368 3.324.7923 1.15.8556 1.466 2.1044 1.6 3.4577-.77 1.8247-1.054 1.9742-2.6 3.0716l-1.5.3611c-.558-.2265-1.316-.4736-1.79-.8782-1.377-1.1741-1.325-2.4238-1.466-4.0545.611-1.5682 1.075-1.8888 2.432-2.75z" fill="#ffdf20"/><path d="m891.079 663.411 1.412 1.159c-.14.464-.179.972-.421 1.392-.609 1.055-3.751 2.203-4.91 3.003-3.317 2.29-6.338 4.898-9.302 7.621 1.132-2.305 2.211-5.18 3.82-7.179 2.196-2.729 6.319-4.439 9.401-5.996z" fill="#4dd088"/><path d="m911.466 671.775.111-.131-.198-.883 1.044-.566c4.608 2.193 8.928 3.26 13.827 4.602 2.667.731 5.249 1.668 7.976 2.162l-.24.523c-.683-.075-1.088-.044-1.717.25l-1.184.562c-2.393 1.02-5.589-.861-7.842-1.766z" fill="#0faab8"/><path d="m82.5288 573.228.3446.372c.9692 1.079 1.4005 1.652 1.6454 3.131.3427 2.071 1.5424 4.555 3.4812 5.568l1.5.562.6998.466c1.0072.63 1.9636.837 3.1033 1.101-3.5608-.022-6.9022.481-10.3672 1.227-1.3668-4.62-1.2019-7.754-.4071-12.427z" fill="#047a70"/><path d="m0 39.125.9375-.0234-.083825 3.4709.603015.1655-.02537 35.0185-.616614-4.2565c-1.353042-3.7064-.268818-8.4931-.814706-12.5z" fill="#e7e2a8"/><path d="m192.092 522.49c-6.702-1.735-13.208-.12-19.768-2.486 2.937-.996 5.838-1.878 8.958-2.09 2.088-.141 4.022.018 6.073.412 1.482 1.593 2.979 2.883 4.737 4.164z" fill="#03958a"/><path d="m1021.99 537.359 2.01.091v25.13l-2.11.204z" fill="#ffdf20"/><path d="m1.09015 480.508.0109 4.345.29426 34.58c-.447956.206-1.020191.391-1.39531.709v-15.6-24.097z" fill="#fbdb80"/><path d="m1.09015 480.508.0109 4.345c-.313328 4.413-.219846 8.838-.231922 13.258-.005635 2.063.354672 4.729-.869128 6.431v-24.097z" fill="#f2e6b8"/><path d="m658.018 43.25c.432-.1522 1.035-.3915 1.486-.4172 1.59-.0906 2.552.6792 3.439 1.9172.733 1.0237 1.022 3.055.636 4.25-.461 1.4287-1.036 1.4196-2.329 1.979-1.512.0698-2.334-.0179-3.75-.5493-1.217-1.1979-1.465-2.0887-1.852-3.6797.508-2.0827.678-2.1513 2.37-3.5z" fill="#fbdb80"/><path d="m84.5525 474.955c3.452 2.517 7.4173 5.001 10.1621 8.295l-.3601 1-10.3215-.391z" fill="#fc7c04"/><path d="m891.079 663.411c.458-.267 1.725-1.214 2.171-1.265 1.425-.163 4.309.569 5.735.922 4.823 1.197 9.317 4.311 13.429 7.026l.009.101-1.044.566.198.883-.111.131c-5.864-3.116-12.311-6.36-18.975-7.205z" fill="#047a70"/><path d="m0 576.605 1.04955.413.08661.527c-.05796 7.232-.691713 15.246.38691 22.384l-.03446 20.65-1.48861.824z" fill="#e7e2a8"/><path d="m934.226 676.959c1.473-.439 2.517-.423 3.413-1.709-.417-1.713-1.561-2.742-2.715-4l.326-1.013c2.891-.246 4.951 1.7 7.5 2.79 1.951.835 4.191 1.267 6.25 1.76-4.218 1.71-8.753 3.873-13.25 4.703-1.113-.666-1.179-.836-1.764-2.008z" fill="#03958a"/><path d="m1022.04 729.979 1.96.379v7.741 23.548l-.34-.065-.28-.02c-.99-2.445-1.26-5.038-1.65-7.625l.14-8.539c-.44-3.655.01-7.716.1-11.412l-.07-3.653z" fill="#e7e2a8"/><path d="m1022.04 729.979 1.96.379v7.741c-.79-1.348-1.43-2.673-2.03-4.113l-.07-3.653z" fill="#edebdb"/><path d="m0 39.125v-39.125h2.5l1.37849 1.23746-1.68975.51254c-1.357227 4.30504-.70521 10.1141-.69251 14.653l-.03954 26.335-.603015-.1655.083825-3.4709z" fill="#f2e6b8"/><path d="m851.639 665.342 13.813-.023c-1.569 1.671-2.893 2.892-4.835 4.14-.629.404-1.055.809-1.526 1.387l-5.077 2.956c-.233-.25-1.089-.832-1.183-1.052-.731-1.703-.547-5.012-1.079-7.005z" fill="#fd5400"/><path d="m896.482 692.169-.767-.368c-4.79-.053-11.47 4.932-15.667 7.36 1.415-2.336 3.223-4.211 5.133-6.142 3.835-3.878 6.222-5.498 11.819-5.532.769 1.303 1.906 2.293 2.963 3.368-1.186.75-2.04 1.452-3.481 1.314z" fill="#047a70"/><path d="m1.48436 162.994.08536 44.878-1.56972 1.214v-43.03z" fill="#faf095"/><path d="m624.669 818.206c1.787.834 3.439 1.654 5.068 2.768-1.248 3.331-2.522 6.368-4.575 9.308-1.748.357-3.522.804-5.304.902.856-4.484 2.032-9.294 4.811-12.978z" fill="#680b01"/><path d="m895.808 730.124c.362 1.444.572 3.276 1.57 4.379l-13.628 12.204c-2.8 2.567-4.856 4.923-8.377 6.527z" fill="#ffdf20"/><path d="m93.6116 624.783-.0541-6.346c3.7466-2.549 7.9045-5.721 12.3185-6.926 3.276-.894 6.987-1.017 10.377-1.482-2.096 1.492-5.129 2.024-7.419 3.383-2.231 1.325-3.584 3.529-5.607 5.083-2.335-.572-5.0382 1.253-7.5697 1.711-.8765.159-.5467.077-1.432.544-.1734 1.342-.2771 2.723-.6137 4.033z" fill="#dc0500"/><path d="m990.565 0h31.435l-.58 1.47347-81.707-.04725c3.865-1.043433 8.437-.664685 12.428-.674809l27.586.314309c3.098-.01046 8.302.5335 10.838-1.06572z" fill="#b8b77f"/><path d="m148.257 540.25 2.546-.139c8.288-.189 13.067 4.568 18.942 9.373 3.329 2.724 6.668 5.324 9.788 8.301-4.049-1.362-6.924-3.235-10.533-5.385-1.865-1.112-3.962-1.895-5.634-3.31-2.311-1.957-3.536-4.628-6.297-6.157-2.586-1.431-5.36-1.459-8.072-2.415z" fill="#0cb7c3"/><path d="m-0 520.142c.375119-.318.947354-.503 1.39531-.709l.04684 34.333c-.02864 5.151.46594 10.924-.33353 15.982l-.05907 7.27-1.04955-.413v-17.661z" fill="#faf095"/><path d="m0 558.944c1.76455 2.072 1.13572 8.057 1.10862 10.804l-.05907 7.27-1.04955-.413z" fill="#edebdb"/><path d="m124.319 645.477c2.219-1.413 3.86-2.973 6.53-2.895 1.58 2.467 3.811 5.714 4.608 8.513-1.549-.039-13.198.462-13.457.326-.291-.153-.48-.447-.721-.671.311-2.242 1.404-3.734 3.04-5.273z" fill="#048690"/><path d="m464.291 808.09c5.972-.018 36.238-1.431 39.459.771l-.13.741c-2.314 1.097-37.27.906-42.142.562l3.272-.398.5-.462 1.25.074c.82.059 1.568.149 2.391.068.713-.069 1.39-.108 2.109-.068 1.204.066 2.054.12 3.25-.123-3.416-.027-6.962.52-9.959-1.165z" fill="#ffe621"/><path d="m996.801 637.75c2.63-.342 7.829-.751 10.249.165.88 1.236 1.13 1.752 1.21 3.335-.82 1.582-2.77 2.333-4.29 3.155l-4.496 4.1-3.401-9.755z" fill="#dc0500"/><path d="m924.008 451.671 11.943.101c-1.572 1.822-1.612 2.72-2.201 4.987 1.271.733 2.425 1.081 3.827 1.442-1.704.34-3.138-.151-4.827-.24l-7.802-.039-34.264-.036c-6.864-.011-13.871.266-20.705-.312 4.488-.897 10.165-.269 14.781-.264l31.255.027c2.442.001 7.724.624 9.735-.392.217-1.703.149-2.769-.225-4.445z" fill="#1e0000"/><path d="m1024 802.515v43.351c-1.05 1.489-1.52 2.672-1.9 4.451l-.04-3.266-.15-44.013z" fill="#f2e6b8"/><path d="m860.992 620.388c7.083 1.093 11.743 4.014 17.87 7.558-3.832-.855-7.868-2.189-11.76-2.604-5.342-.569-11.09.033-16.459.264-.703-.82-.908-1.374-1.163-2.419l.537-.28c3.578-.434 7.214-2.041 10.975-2.519z" fill="#fdf567"/><path d="m829.994 722.75c.545-.045 1.08-.015 1.627 0-2.241 1.794-4.35 3.501-5.903 5.964-1.895 3.007-2.233 9.583-5.038 11.517-.6.413-1.75-.116-2.43-.285-.811-.477-1.553-1.124-2.301-1.696-.075-1.374.221-2.071.862-3.298 1.573-3.006 3.93-7.514 6.698-9.483 1.912-1.361 4.271-2.014 6.485-2.719z" fill="#fe3100"/><path d="m1021.73 753.937c.39 2.587.66 5.18 1.65 7.625l.28.02.34.065v40.868l-2.09.523z" fill="#ffdf20"/><path d="m1.55628 651.942.12402 65.43-1.6803-.928v-63.942z" fill="#e7e2a8"/><path d="m912.994 608.089c5.258-2.644 11.941-3.064 17.686-4.239 7.531-1.541 14.854-3.445 22.5-4.386l-14.017 5.226c-1.734.707-3.69 1.952-5.496 2.343-1.915.416-4.089-.019-6.062.263-3.234.463-6.333 1.707-9.556 2.323-1.891-.334-3.349-.622-5.055-1.53z" fill="#fa6d05"/><path d="m991.127 534.75c6.638.995 14.163.675 20.883.485.12 2.406.74 5.815-.26 8.02-.84.2-4.37 1.069-5 .752-1.04-.523-2.42-2.456-3.44-3.257-2.31-1.802-7.714-4.578-10.562-5.318-.615-.16-1.062-.382-1.621-.682z" fill="#dc0500"/><path d="m714.312 0h72.122c4.463 2.58726 25.628-.544097 27.437 1.34175l-102.055-.32014z" fill="#e7e2a8"/><path d="m677.982 795.25c4.564-.173 9.921-.482 14.157 1.369l.611.29c1.794-.425 3.413-.425 5.25-.398l.643.739c.209 1.65.204 2.621-.211 4.229-1.221.242-2.612-.919-3.707-1.516l-1.975-1.018c-4.011-.32-10.79 3.846-14.574 5.605-.044-2.932-.705-6.444-.194-9.3z" fill="#fc1b01"/><path d="m294.484 781.75c3.608-1.031 9.136-.216 13.038-.205l38.978.532c.965.817 1.955 1.442 2.25 2.739l-54.223-2.435z" fill="#ffc001"/><path d="m349.534 0h76.466l-.552.25c-2.233.744275-15.154-.384806-15.946.538935l19.498.079053c3.434.007082 7.373-.36206 10.737.218892-3.79.49488-7.874.26043-11.703.27506l-21.062.05755-59.02-.19456z" fill="#d4d4be"/><path d="m64.0371 515.804c3.4203-2.262 7.5183-4.19 11.5386-5.054 2.4459-.526 4.9515-.658 7.4243-1.209l1.8758.612.6651.173c.3469 1.684.2141 2.185 1.5671 3.317-3.473 2.143-7.9836 4.506-12.1841 4.236-.6447-1.053-8.9615-.887-10.8868-2.075z" fill="#03958a"/><path d="m193.079 770.328 27.584 2.668c4.979.54 14.793.685 18.767 3.62l-1.68.139c-.599.901-.36.479-.75 1.245l-.526.193c-.767.303-.48.156-1.148.7-7.032-2.18-14.024-3.054-21.275-4.092l-21.652-2.638z" fill="#0cb7c3"/><path d="m668.077 822.877c1.361-2.707 2.6-5.586 4.442-8.002 1.479.007 2.979-.056 4.45.096 2.894.298 5.93-1.392 8.551-2.502-1.337 1.648-3.091 3.384-3.938 5.323 1.186 2.145 2.041 4.76 3.585 6.58-.573.21-.73.303-1.422.351-1.35.095-2.914-.313-4.29-.405-2.912-.195-9.084.182-11.378-1.441z" fill="#fe3100"/><path d="m865.452 665.319c5.301-3.992 9.283-7.538 16.307-7.115 3.544.214 8.133 2.149 11.378 3.637-3.89.153-7.228.657-10.996 1.54-2.997.702-5.018 2.225-7.21 4.314-2.13-.265-6.85-1.322-8.549-.228-2.406 1.55-4.554 2.563-7.291 3.379.471-.578.897-.983 1.526-1.387 1.942-1.248 3.266-2.469 4.835-4.14z" fill="#03958a"/><path d="m0 61c.545888 4.0069-.538336 8.7936.814706 12.5l.616614 4.2565.05304 85.2375-1.48436 3.062z" fill="#edebdb"/><path d="m84.4986 523.546c5.3145-1.179 12.2099 1.135 17.3694 2.402-2.4153 1.016-4.8388 1.897-7.368 2.583-1.1014.299-3.3349.515-4.25 1.043-.5764.332-1.5232 1.817-2 2.386l-1.6261-.43c-.6737.3-.717.543-1.1239 1.134-2.1463-.551-3.9573-1.771-6-2.589-3.2226-1.291-6.7621-2.152-10.0766-3.219 5.2495-.49 10.1592-1.391 15.0752-3.31z" fill="#03958a"/><path d="m426 0h78.5c5.374.73215 11.272.274201 16.709.266078 1.731-.002587 4.902-.437115 6.291.488922 5.612.017891 13.488-.8542031 18.794.62911l-106.557-.29723c-3.364-.580952-7.303-.21181-10.737-.218892l-19.498-.079053c.792-.923741 13.713.20534 15.946-.538935z" fill="#edebdb"/><path d="m85.5409 510.326 18.9591 1.57.798.126c4.968.877 10.366 6.192 13.928 9.524 1.748 1.635 3.81 3.392 5.126 5.405l.972 1.83 1.21 2.423c-7.446-4.716-13.777-12.905-22.284-15.643-2.163-.696-4.4837-.513-6.7107-.754-3.5934-.387-6.7681-1.292-10.4313-1.164-1.353-1.132-1.2202-1.633-1.5671-3.317z" fill="url(#a)"/><path d="m194.486 566.135-4.989-1.147c-5.323-1.272-10.965-2.728-16.101-4.629l-9.737-4.136c-6.264-2.467-14.427-3.934-18.252-10.172 5.091 1.374 11.932 4.022 16.09 7.355 1.748 1.402 4.016 1.568 6.152 2.129 3.655.96 7.267 2.311 10.966 3.055 1.551.311 3.108.113 4.635.438 1.622.345 3.224 1.28 4.808 1.805l8.498 2.403c-1.59 1.576-1.905 1.349-4.056 1.514l.774.286c1.034.398.639.195 1.471.76z" fill="#0faab8"/><path d="m196.556 563.236 32.906 9.562c1.909 1.903 4.057 2.697 5.99 4.359-6.685.016-13.561-1.995-19.908-3.905l-21.058-7.117.259-.339c-.832-.565-.437-.362-1.471-.76l-.774-.286c2.151-.165 2.466.062 4.056-1.514z" fill="url(#b)"/><path d="m1024 562.58v61.92c-.32 2.452.2 5.429-.34 7.733-.27 1.166-.93 1.482-.98 2.85-.27 8.156.83 17.047-.27 25.076-.48-3.128-.21-6.716-.24-9.897l-.16-18.225-.12-69.253z" fill="url(#c)"/><path d="m114.494 538.75 1.178-.004c-1.009 1.071-2.142 1.743-3.345 2.574-2.614 1.805-5.184 2.943-8.228 3.859-2.432.733-5.2454.9-7.0648 2.844-2.8489 3.044-8.8369 3.835-12.7842 5.485l-1.1379-.527-.0193-1.481c1.193-1.771 2.563-3.461 4.2849-4.75 4.4121-3.303 9.9048-5.493 15.1903-6.823 1.393-.351 3.338-1.073 4.739-.778 2.426.509 4.18.431 6.583-.226z" fill="#03958a"/><path d="m148.755 512.75c2.935-.94 8.375-.37 11.172.938l.573.292c2.927 1.449 5.127 3.924 7.424 6.196-5.117-.338-10.204.205-15.301.624-6.597.218-9.826 1.718-15.276 5.187 3.425-4.475 6.341-10.461 11.408-13.237z" fill="url(#d)"/><path d="m1024 624.5v105.858l-1.96-.379.03-22.17.34-47.65c1.1-8.029 0-16.92.27-25.076.05-1.368.71-1.684.98-2.85.54-2.304.02-5.281.34-7.733z" fill="#f1ede5"/><path d="m958.528 637.1c4.682-.074 15.467-1.03 19.222 1.886-.197.957.081.697-.792 1.005-1.75.616-4.174.388-6.025.458-7.019.265-11.532 2.228-17.255 6.043l-2.428 1.934-15.191-11.253 16.595 2.989c1.898-1.219 3.825-2.135 5.874-3.062z" fill="#fd5400"/><path d="m158.998 492.701c1.46-.454 3.445-2.379 4.726-3.35l3.921 1.382c2.194 3.384 5.934 7.941 5.26 12.233-.13.83-.511.822-1.155 1.239l-16.976-.738c.449-1.979.812-4.263 1.721-6.079.797-1.595 1.9-2.973 2.503-4.687z" fill="#03958a"/><path d="m0 735.548.609844.213.894646-1.148.03273 87.137.29794 15.314c-.00907 1.339.24727 3.456-.06307 4.717-.10139 3.861.38336 8.579-1.77209 11.822z" fill="#f2e6b8"/><path d="m92.0559 493.478c.9746.044 1.8335.176 2.7893.349 5.5658 1.007 7.4248 2.503 10.6558 7.128l-14.2947.186c-1.967.02-4.5014.369-6.3192-.391-1.8213-3.583-.8671-10.915-.7965-15.022 6.3157-.471 11.1499-.788 17.1224 1.689-3.1198.02-7.6453-.486-10.5272.552.2715 1.796.2182 4.107 1.3701 5.509z" fill="#fd5400"/><path d="m92.0559 493.478.1505.73c-1.6278 1.214-4.1691.744-6.194.764-.0124-1.966-.0288-3.864-.3643-5.806-.1113-.644.1406-.846.4284-1.416l4.6093.219c.2715 1.796.2182 4.107 1.3701 5.509z" fill="#fc7c04"/><path d="m504.5 0h209.812l-2.496 1.02161-41.01.13255-74.2.28107-35.856-.18014c-4.577.00155-9.972.72092-14.456.12902-5.306-1.4833131-13.182-.611219-18.794-.62911-1.389-.926037-4.56-.491509-6.291-.488922-5.437.008123-11.335.466072-16.709-.266078z" fill="#f1ede5"/><path d="m441.094 465.561 52.605.095c7.913 2.015 15.803 1.964 23.908 1.535 4.029-.213 7.176-.828 11.317-.088 2.267.405 4.514.41 6.777.935l-131.861.099c2.69-1.138 5.941-2.061 8.864-2.089 6.583-.065 12.344 2.258 18.968.762 3.09-.698 6.275-.898 9.422-1.249z" fill="#fa6d05"/><path d="m786.434 0h82.598 121.533c-2.536 1.59922-7.74 1.05526-10.838 1.06572l-27.586-.314309c-3.991.010124-8.563-.368624-12.428.674809-3.184.47908-7.087.02448-10.353.01825l-25.369-.10914-77.854.01774-12.266-.01132c-1.809-1.885847-22.974 1.24551-27.437-1.34175z" fill="#d4d4be"/><path d="m786.434 0h82.598c-2.191 1.49628-7.596.861999-10.32.874257l-31.481-.012907c-.879-.002838-.515-.167387-1.094.49172l-12.266-.01132c-1.809-1.885847-22.974 1.24551-27.437-1.34175z" fill="#f1ede5"/><path d="m493.699 465.656 88.668-.073 21.157-.035c3.09-.009 6.917-.452 9.929.092l1.235 2.502-78.987-.104c-2.263-.525-4.51-.53-6.777-.935-4.141-.74-7.288-.125-11.317.088-8.105.429-15.995.48-23.908-1.535z" fill="#fc7c04"/><path d="m798.398 576.872 116.314.52c-1.773.148-3.484.19-5.127.922-4.635 2.064-12.859.664-18.045.815l-89.522.373c-1.649-.116-3.08.191-4.273-1.002z" fill="#fc1b01"/><path d="m140.838 465.484 92.173 1.773 2.176.68-119.437.133-23.4922.409c-1.7444.02-4.9027.473-6.4977.074-.4153-.104-.7442-.423-1.1162-.635l1.3651.252c6.0493-2.484 11.9024-1.871 18.229-1.476 4.021.251 7.909-.09 11.902-.015 3.194.06 6.624.699 9.78.346 2.543-.284 6.812.147 9.08-.78l.745-.495z" fill="#fa6d05"/><path d="m93.6116 624.783c.3366-1.31.4403-2.691.6137-4.033.8853-.467.5555-.385 1.432-.544 2.5315-.458 5.2347-2.283 7.5697-1.711l-.977 2.34c3.774.451 7.735-1.065 11.42-1.788.812-.159 1.585.109 2.33.004l.66-.262c3.022-1.114 8.029-.572 11.317-.493-1.765.726-3.726 1.434-5.238 2.617-2.63 2.058-5.562 6.731-8.835 7.666-1.069.305-3.456-.045-4.654-.032-3.175.033-6.372.214-9.5.787-11.2739 2.066-21.2831 6.577-31.9446 10.476 4.6873-3.9 11.6285-6.025 17.2802-8.209 2.2716-.877 7.0415-2.147 8.4159-4.101z" fill="#fe3100"/><path d="m326.5 807.985 137.791.105c2.997 1.685 6.543 1.138 9.959 1.165-1.196.243-2.046.189-3.25.123-.719-.04-1.396-.001-2.109.068-.823.081-1.571-.009-2.391-.068l-1.25-.074-.5.462-3.272.398-91.807-.081-25.921-.433c-4.465-.055-9.129-.46-13.553.204-.62.133-3.015-1.48-3.697-1.869z" fill="#ffdf20"/><path d="m-0 209.086 1.56972-1.214-.01254 205.319-1.55718-1.036z" fill="#f2e6b8"/><path d="m867.859 678.801c2.223-1.892 2.615-2.565 5.641-2.183.636.081 1.24.327 1.836.546-.26 2.649-3.435 6.917-4.67 9.4 2.742-.233 5.763-.343 8.399-1.163 7.202-2.238 13.606-6.595 20.873-8.812-7.125 5.348-14.519 10.478-20.704 16.934-3.468-.429-7.526-1.285-10.984-.847-4.779.605-8.475 5.718-12.826 7.418-1.759.687-4.2.727-6.081.925l.204-.456c1.1-2.51 1.581-5.502 2.875-7.87 1.365-2.499 5.944-6.333 8.568-7.435 1.037-.436 1.839-.54 2.76-1.26l.5.414-1.078.912c.76.518 1.285.778 2.185.973l.104-1.867c.141-.955-.123-2.204-.206-3.18z" fill="#fd5400"/><path d="m78.3384 582.75c.6433.15 1.0613.488 1.4971 1 1.412 1.659 2.1567 4.858 1.9414 7.003-.3336 3.324-2.7822 7.385-4.0274 10.542l-10.5576 25.692c-2.2521 5.211-4.8802 13.05-9.2452 16.763-.8215.469-1.2171.545-2.1603.5l-.5536-1.306c.164-4.219 3.5594-8.664 5.0122-12.694l6.7067-18.996c2.3269-7.098 4.4527-13.937 7.4725-20.801 1.1545-2.625 2.1837-5.403 3.9142-7.703z" fill="#13c0b4"/><path d="m114.569 771.576c6.081-1.28 11.817-5.132 18.139-6.067l1.761 1.125.984-.314c-1.57.687-2.666.74-3.292 2.447l-.283.93c-4.265 2.052-6.961 3.686-9.72 7.625 9.843 6.201 22.048 6.227 33.269 5.155 3.096-.049 6.795-.438 9.741.474 5.075 1.57 11.379 1.519 16.664 1.633.651.432 1.096.815 1.595 1.416-2.29 2.11-8.068 1.437-11.144 1.454-16.597.091-32.927-1.845-49.284-4.689-4.189-.728-11.575-4.346-15.374-3.282l.137-1.36z" fill="#11d1d5"/><path d="m980.473 651.107c.552-2.289.658-3.513 2.527-5.131 1.515-.077 1.79-.068 3.131.619 2.506 1.389 4.755 2.797 6.843 4.777 1.338 1.269 2.432 2.856 3.919 3.954 2.838 2.094 6.407 3.216 9.417 5.06 3.69 2.258 7.01 5.037 10.73 7.295l-20.574-4.907c-7.653-3.211-15.125-4.083-23.346-4.441l-5.726-.645c-2.288-.459-5.093-.147-7.206-.712-1.074-.288-4.492-3.407-5.744-4.264l.451-.613c8.425.04 17.284.588 25.578-.992z" fill="#fc1b01"/><path d="m980.473 651.107c.552-2.289.658-3.513 2.527-5.131 1.515-.077 1.79-.068 3.131.619-.92 2.802 1.289 2.459-2.131 4.627z" fill="#dc0500"/><path d="m940.847 561.819 22.403.259c3.78.027 7.896-.33 11.627.21 4.532.656 9.93-1.85 14.123.722l.349.9c-1.515 1.607-3.824 2.124-5.863 2.835-2.63.917-4.228 2.581-6.124 4.542-.332.343-1.88 2.244-2.218 2.34-.524.149-2.576-.355-3.182-.436l-8.509-.969c-8.522-.658-17.341-.862-25.884-.665l-.283-.544c.461-.724.426-.528.605-1.178.603-2.189 1.273-6.501 2.956-8.016z" fill="#dc0500"/><path d="m2.5 0h347.034l-1.582 1.22493-344.07351.01253z" fill="#edebdb"/><path d="m359.479 825.984 115.153-.248c1.596 1.258 4.046-.123 5.868 1.009 1.452.903 3.994.52 5.706.519 4.675-.004 9.732-.432 14.294.354l3.255.132.31 1c-1.577 1.481-14.621.34-17.716.86l-91.597.118-16.045-.169c-6.42.575-12.905.688-19.289-.225.423-1.151.21-2.17.061-3.35z" fill="#faf095"/><path d="m378.707 829.559c.82-1.464 1.377-2.266 2.793-3.188l3.5-.002c.036.713.057.418 0 .886 1.187.059 2.139.349 3.25.5l.905.019c1.909.068 3.559 1.602 5.597 1.954z" fill="#fdf567"/><path d="m10.5141 506.204 52.5196.412c3.2142-.022 6.3735-.489 9.5861-.454 1.3946.016 3.1551-.2 4.3598.588l-.2439.401c-2.075 2.672-11.917 3.169-15.3513 3.899-3.783.583-7.7024.542-11.4536 1.304-8.6282 1.752-14.9176 9.446-21.0496 15.191-.4319-2.034-.7425-5.004-2.4067-6.405l-1.5905-1.296c-1.8808-1.553-5.2635-4.487-7.6243-5.122-1.3853-.373-4.7832.378-6.3019.523-.4625-2.988-.3999-6.024-.4437-9.041z" fill="#dc0500"/><path d="m587.37 792.675 1.143 1.075-.979 6.25c.881 1.12 1.881 1.619 3.105 2.278-3.211 4.46-5.826 9.94-8.054 14.955-1.814 4.081-3.268 8.347-6.457 11.59-1.497.98-2.931 1.052-4.685 1.146-4.271.231-8.629-.022-12.911.003l-34.463-.039-25.977-.084c-3.8-.039-7.992.254-11.743-.239 3.095-.52 16.139.621 17.716-.86l-.31-1-3.255-.132c-4.562-.786-9.619-.358-14.294-.354-1.712.001-4.254.384-5.706-.519-1.822-1.132-4.272.249-5.868-1.009l93.424.428c2.478-2.699 4.112-5.94 5.866-9.127l8.869-18.007c1-.945 2.015-3.534 2.735-4.814z" fill="#fdf567"/><path d="m886.365 611.42 2.554.143c2.435 1.321 5.496 3.816 8.094 4.588 3.464 1.029 7.76.717 11.346.754l16.891.601c2.82.204 6.105.059 8.352 1.974-.164 1.906-2.953 4.067-4.303 5.503l10.111-1.207c2.688-.25 5.738-.112 8.34-.792 1.826-.476 3.374-1.522 5.25-1.957l.847.545-.277.678c-2.252 1.073-4.589 2.313-7.013 2.929-4.78 1.215-9.168 1.444-13.792 3.479-7.039 3.097-12.124 8.923-19.344 11.761-3.693-5.047-7.669-8.923-11.85-13.467-2.152-2.338-3.941-5-6.211-7.229-2.925-2.871-6.521-4.981-8.995-8.303z" fill="#fe3100"/><path d="m899.963 690.855c3.487 2.852 6.951 4.316 11.537 3.679l2.997-.801 1.469 2.005-27.304 20.587c-2.436 2.006-4.596 4.339-6.964 6.425l-27.775 25.415c2.833-4.496 5.67-9.032 7.609-14.003 1.623-4.16 2.386-8.589 4.807-12.419 1.463-2.317 5.008-5.817 7.832-6.236 5.181-.768 11.37-7.024 15.611-10.06 2.393-1.714 4.929-2.924 7.609-4.118l-6.365-1.409c-1.943-.557-9.521 2.529-12.992 2.263l18.448-10.014c1.441.138 2.295-.564 3.481-1.314z" fill="#03958a"/><path d="m996.466 662.774 2.534 1.704c4.13 2.601 6.67 6.164 10.01 9.642-2.25.403-5.05.084-7.36.061-2.614-.026-5.588.233-8.15-.163-2.304-.357-4.448-1.409-6.791-1.723-2.371-.318-4.895.335-7.209.8-6.168 1.24-12.674-.606-18.969.306l-.679.108c-2.148-3.45-5.845-8.384-9.753-9.778-3.727-1.329-7.359-1.758-10.95.101-.897.464-1.596.692-2.564.962l.026-.544c4.931-2.511 9.511-4.022 15.106-4.041l.533.001c2.819-3.66 3.975-.37 7-1.857 3.382 1.042 10.192.021 13.87-.02 8.221.358 15.693 1.23 23.346 4.441z" fill="#047a70"/><path d="m789.427 614.948c3.102 1.068 6.948.889 10.229 1.049l34.9.025c10.992.05 21.956.478 32.852 1.806l-.884.247c-1.848.53-3.964 1.187-5.532 2.313-3.761.478-7.397 2.085-10.975 2.519l-.537.28-3.609 1.153c-6.405 1.411-12.982 1.719-19.522 1.938l-27.34.194c-3.165-.015-10.295-.899-12.865.559l-.529 1.268c-.266-4.078.494-9.375 2.334-13.026z" fill="#fe3100"/><path d="m845.871 624.34c-.769-.253-.51-.056-.959-.527-1.038-1.09-2.422-2.658-2.39-4.228 2.362.604 5.77 1.562 7.495 3.322l-.537.28z" fill="#dc0500"/><path d="m943.024 535.439.404-.01c3.988-.071 37.951-.289 38.822.161.283.146.46.44.69.66l-1.343 1.75c-.165 2.249-1.191 7.26-.648 9.164.666 2.339 3.794 5.332 5.354 7.225-8.847-1.254-17.845-.876-26.759-.895l-19.174-.357c1.355-5.931 2.271-11.616 2.654-17.698z" fill="#dc0500"/><path d="m590.639 802.278 34.03 15.928c-2.779 3.684-3.955 8.494-4.811 12.978l-9.738-.632-27.221-.641c-1.278-.056-4.073.213-5.19-.161-.579-.194-1.054-.618-1.581-.927 3.189-3.243 4.643-7.509 6.457-11.59 2.228-5.015 4.843-10.495 8.054-14.955z" fill="url(#e)"/><path d="m12.5874 694.022c-.5644-.807-1.2999-1.743-1.4907-2.727-.2568-1.324.3939-2.803 1.0646-3.914 1.9064-3.157 4.6655-6.038 7.0359-8.866 7.597-9.061 16.6003-19.118 27.4986-24.31 4.6758-2.228 10.0784-3.119 15.0542-4.408 2.6041.963 4.822.784 7.5052.297 9.8519-1.787 19.8636-1.266 28.2556 4.805 4.4702 3.234 9.1942 8.311 11.1272 13.545.955 2.584 1.257 5.527 1.72 8.241-1.638-3.663-2.578-7.992-5.015-11.208-5.126-6.763-15.1641-12.415-23.593-13.472-1.9807-.249-4.8407-.267-6.3999 1.173l-.5875.584c-1.4875-.595-2.4078-.686-4.0126-.671-.5026.379-1.0299.747-1.4194 1.252-1.1704 1.517-1.6094 3.83-1.1672 5.681.2348.983.1382.851-.2507 1.726-3.467 2.458-8.2707 6.094-12.5674 6.604-3.1442.372-6.3498 2.782-8.7145 4.778l-.3808.328c-.679-.22-1.1763-.383-1.8989-.211-6.9631 1.655-13.999 6.185-19.9026 10.139-3.2707 2.19-6.377 4.126-8.6231 7.462l-.2751.421-.5253.574c-.6831.778-.4748.426-.775 1.304l-.6195-.085z" fill="#03958a"/><path d="m659.631 838.501c3.235-4.926 5.103-10.663 8.446-15.624 2.294 1.623 8.466 1.246 11.378 1.441 1.376.092 2.94.5 4.29.405.692-.048.849-.141 1.422-.351 3.846.303 8.353 2.298 12.241 3.133 8.907 1.913 17.902 3.269 26.676 5.815 2.538.736 4.912 1.907 7.416 2.729l27.848 7.788-5.944.22c-7.224-1.207-15.09-.795-22.437-1.358l-10.272-1.151z" fill="#dc0500"/><path d="m64.8493 481.742 14.6507.773.4732.735-1.3649 1.5c1.2769 1.616 1.1921 2.017 1.3667 4l-.725.809c-4.8559-.741-9.1085 2.732-13.5821 4.505-2.9494 1.17-1.2141 1.088-2.1876 3.326-4.5473.612-9.5341.139-14.1291.108l-21.457-.287-17.4148-.115.1834-15.258z" fill="#dc0500"/><path d="m944.569 456.112 67.531.397c.65 1.344.41 3.223.44 4.71l.19 9.412-38.903.012-21.107.355c-2.231.016-5.475.5-7.485-.247z" fill="#dc0500"/><path d="m74.9239 517.879c.0488.362-.4762 1.047-.6601 1.371.5634.68.8787 1.157 1.1469 2-1.8765 2.155-3.4695 3.208-6.2272 3.983-1.1497.324-1.9333.606-2.9335 1.253l-.1233.919c3.9463 2.922 9.9584 1.704 14.3225 5.177l.0209.793c-5.502 1.19-10.9101 3.142-16.3578 4.233-1.6966.34-5.8445.192-7.1123.902-.2867.16-.5.427-.75.64l.2877 2.6c1.6783 1.983 4.133 2.831 6.2123 4.332l-.5.596c-2.4921.501-4.9815.088-7.5-.002l-17.1498-1.167c-3.6844-.084-7.4381-.161-11.1162.086-4.8081.323-10.2253 1.103-14.984.301l-.4446-.646c3.4541-2.097 6.7073-4.283 9.7765-6.922l2.3922-1.958 40.813-20.566c1.9253 1.188 10.2421 1.022 10.8868 2.075z" fill="#047a70"/><path d="m35.1721 456.256 44.8264.217-.727 14.64c-8.1349 1.121-17.5402.044-25.8155-.06l-43.3308-.064c.6622-4.781.4186-9.798-.0928-14.583z" fill="#dc0500"/><path d="m945.069 481.414 67.671.673c-.21 2.974-.23 5.986-.05 8.963.14 2.398 1.2 4.887.38 7.2-.97.197-.65.207-1.5.144l-65.634-1.232z" fill="#dc0500"/><path d="m82.5288 573.228c.9177-4.765 2.6759-14.195 6.6531-17.045 4.2351-3.034 10.738-1.989 15.6331-2.203 7.057-.308 14.847-.395 21.773-1.633-4.186 3.369-10.305 9.734-15.211 11.422-2.998 1.033-6.502 1.183-9.64 1.551l13.717 4.128c1.978.627 4.58 1.147 6.289 2.267.736.482 1.299 1.272 1.715 2.039 2.104 3.885 2.195 9.555 2.769 13.906l-32.9239-3.232c-1.1397-.264-2.0961-.471-3.1033-1.101l-.6998-.466-1.5-.562c-1.9388-1.013-3.1385-3.497-3.4812-5.568-.2449-1.479-.6762-2.052-1.6454-3.131z" fill="#03958a"/><path d="m1022 0h2v530.138 7.312l-2.01-.091.09-67.549c-.63-3.189-.1-7.658-.13-11.021l-.09-32.056.11-115.578-.02-29.554.06-26.183c-.39-2.68-.13-5.79-.15-8.52l.08-15.542-.52-229.88253z" fill="url(#f)"/><path d="m484.013 763.994c4.347 2.516 9.285 3.513 13.534 6.083.153 3.018-.492 6.884 2.054 9.003 2.817 2.345 16.024 2.748 20.378 3.189l51.628 5.317c3.641.482 10.151.74 13.393 2.515 1.062.581 1.511 1.199 1.918 2.3l.452.274-1.844 1.541c-.72 1.28-1.735 3.869-2.735 4.814l-7.704-3.807c-3.147-1.52-6.273-3.214-9.733-3.868-2.434-.46-5.15-1.286-7.622-1.284-5.02.006-11.361 1.45-16.142 3.101-2.228.769-4.887 2.238-7.237 2.384-3.921.244-8.045-1.846-12.035-1.862-3.399-.014-8.894 1.32-11.732 3.315-2.325 1.633-4.492 4.274-6.543 6.295-3.059.554-6.154.344-9.245.256l1.34-4.721c.733-2.973.868-6.345-.812-9.009-2.663-4.22-6.424-7.739-9.819-11.349-1.396-1.485-2.286-3.055-4.406-3.498 1.68-1.195 1.689-8.54 2.912-10.989z" fill="#fc1b01"/><path d="m575.087 795.223c3.003-2.033 6.936-.92 10.439-1.007-.72 1.28-1.735 3.869-2.735 4.814z" fill="#b30402"/><path d="m945.437 506.967 67.183.148-.11 19.635-1.26.763-67.256-.84z" fill="#dc0500"/><path d="m753.404 844.057 5.944-.22c9.535 1.246 18.984.806 28.56.894l41.153.428 136.959.682 33.089.039c7.301.013 15.931-.874 22.951 1.171l.04 3.266-.39 2.63-44.272-.411-67.698.415-15.195-.126c-4.703-.268-9.883-1.439-14.545-.94l-81.153-2.913c-5.405.011-10.601.04-15.951.942-2.962-.501-4.957-1.974-7.724-2.797-2.12-.631-4.307-.761-6.422-1.299-4.86-1.237-9.855-.919-14.798-1.673z" fill="#ffdf20"/><path d="m845.871 624.34 3.609-1.153c.255 1.045.46 1.599 1.163 2.419-3.408 1.111-10.746 5.497-12.393 8.695 2.717 2.532 23.314.847 28.399 1.44 1.62.189 18.52 6.563 18.998 7.424-5.6-.265-10.791-.703-16.388-.117-1.79.188-3.997.166-5.661.838l13.313 5.107c-6.654.891-13.431.727-19.8 2.919l-18.392-.148-45.711-.22-7.645-.066c-.746-.007-2.256.194-2.863-.027-.358-.13-.546-.531-.819-.797l3.934-22.355.529-1.268c2.57-1.458 9.7-.574 12.865-.559l27.34-.194c6.54-.219 13.117-.527 19.522-1.938z" fill="#ffc001"/><path d="m183.113 581.815-24.761-5.3c-2.299-.558-4.695-.721-6.838-1.765-.48-1.16-.77-1.752-.485-3 4.098-.953 11.74.546 15.864 1.632l77.671 6.095 36.088 6.732 3.375.974c4.043 1.163 8.274 1.64 12.41 2.379l10.428 2.134c4.049.706 12.046.667 15.055 3.311 2.064 3.762 1.909 9.991 2.305 14.232-9.315-.848-18.195-2.637-27.367-4.317l-47.542-9.16-43.872-8.787c-7.528-1.599-14.97-2.826-22.331-5.16z" fill="#13c0b4"/><path d="m183.113 581.815-24.761-5.3c-2.299-.558-4.695-.721-6.838-1.765-.48-1.16-.77-1.752-.485-3 4.098-.953 11.74.546 15.864 1.632l-.656.604-.506-.166c-2.748-.728-5.873-.443-8.632-1.183-1.073-.288-2.315-.051-3.414.048l-1.06 1.568 3.125.747.75-.5c2.973.003 6.433-.345 9.25.5l1.995.25c.577.431.742.746 1.479.74 1.594-.015 2.09.195 3.524.885l2.531.831c.65.244 1.311.363 1.989.502-.903.605-1.101.597-2.143.667.832.719 1.319.706 2.375.875l3.109.609 3.359.89z" fill="#21c2af"/><path d="m348.55 733.003c-5.847-.865-12.146-.78-18.055-1.065l-40.452-1.546-50.428-1.348-81.399-1.771c-.931-2.535-1.16-5.834-1.454-8.523-.132-1.206.089-2.66-.358-3.771-1.108-2.757-1.296-6.625-1.691-9.593-.583-4.37-1.405-8.763-1.764-13.145 2.149 5.868 4.795 15.08 4.304 21.368-.101 1.284-.27.634.304 1.705 1.152-.329 2.132-.507 3.329-.564l1.177 1.587c5.429-.711 11.292-.343 16.765-.17l23.916.735 105.518 2.737 25.395 1.062c4.281.246 8.585.9 12.871.793l.601-.02.332.08c1.143 3.758 1.105 7.552 1.089 11.449z" fill="#13c0b4"/><path d="m895.808 730.124c2.685-2.417 5.159-5.195 7.942-7.468 4.075-3.328 9.222-5.6 13.859-8.001 1.932-1 3.98-2.543 6.065-3.152 3.846-1.125 8.837-1.179 12.794-.951 4.827.278 13.873 3.552 16.977 7.092 3.241 3.698 5.076 11.474 6.614 16.151.616 1.874 1.613 3.718 1.908 5.676.511 3.392.026 7.016.71 10.374.711 3.49 1.95 6.831 2.634 10.363-2.821-4.505-4.168-9.203-6.067-14.113-1.392-3.604-3.137-7.068-4.834-10.535-1.738 2.22-2.605 5.057-4.279 7.345-8.319 11.367-19.364 20.806-28.687 31.345-2.13 2.408-4.004 6.212-6.642 7.97l-1.908-34.56-8.817 14.84c-2.369 4.149-3.51 7.791-6.865 11.42-.551-6.246-.562-12.172-.495-18.42.077-7.219.075-12.963 2.237-20-.94-.785-.419-.446-1.576-.997-.998-1.103-1.208-2.935-1.57-4.379z" fill="#047a70"/><path d="m1.13616 577.545c1.71197.303 2.71753-.787 4.10112-1.76 4.84012-3.403 9.28662-7.166 14.39592-10.23 16.2172-9.722 37.3974-16.72 56.4535-13.693 1.5968.253 3.9732.644 4.9662 2.08.8655 1.253 1.2006 3.416 1.5723 4.888l-9.1117 15.17c-3.9211 7.019-7.3788 14.039-11.959 20.692-3.0753 4.468-6.6413 8.341-10.12 12.475-1.7947 2.133-4.2921 2.924-6.4437 4.583-1.6987 1.309-3.2426 2.946-4.753 4.469l11.0763-19.264c-8.2062 2.343-15.7546 7.068-23.3141 10.976-4.6476 2.403-8.9126 5.345-14.25 5.254.769.491 1.3693.841 2.2571 1.065l.0397.767c-1.7425.733-3.6906.043-5.442-.572.2281-3.959 6.2814-5.648 3.1757-9.726-.6829-.897-1.8303-1.497-2.8244-1.969.7508-1.996 3.1501-3.717 4.6468-5.205l7.2189-7.541c2.1778-2.106 4.7443-4.032 6.59-6.423-7.066 3.439-12.4243 9.033-19.1693 12.824-2.70087 1.519-5.82154 2.451-8.71943 3.524-1.078623-7.138-.44487-15.152-.38691-22.384z" fill="#047a70"/><path d="m1021.9 730.333c-8.95-5.26-19.19-7.835-27.68-14.176-.999-.746-1.908-1.344-3.016-1.917 3.546 5.14 9.006 8.072 13.516 12.24 1.3 1.208 2.86 2.377 3.53 4.043-1.86.016-3.07-.009-4.68.98l.02.747c3.49 2.641 6.87 4.273 11.12 5.497.96.276 1.4.324 2.17 1.003-.78-.112-1.53-.189-2.32-.193-1.6-.009-3.25.04-4.81-.409-1.84-.53-5.2-2.614-7-1.777-1.43.666-1.96 1.953-2.53 3.322.99 3.231 8.66 7.649 11.48 10.078-5.14-1.877-9.4-5.134-14.018-8l-23.879-15.528c-11.267-7.688-22.855-17.256-36.071-21.155 2.781-4.803 6.775-8.317 11.616-11.038 1.593-.896 3.655-1.606 5.104-2.66.912-.663 1.298-1.482 1.298-2.566-.738.971-1.641 1.651-2.75 2.15-1.939.874-4.08 1.344-6.053 2.191-1.767.759-4.899 2.599-6.697 2.771-.354.034-.667-.249-1-.374l-.258-.62c-.608-1.611-.817-4.662-.035-6.192 1.816-3.549 9.124-7.043 12.828-8.202l.693-.204c3.69-1.11 8.011-1.121 11.846-1.33 1.977-.108 4.101-.416 5.963.384 8.284 3.561 17.216 4.99 25.334 9.178 5.539 2.857 11.529 7.014 16.379 10.936 3.24 2.614 6.05 5.601 9.52 7.939l.55.358-.03 22.17z" fill="#047a70"/><path d="m779.753 540.874.888.134c5.713.82 11.53.513 17.286.56l35.464.044 104.11-.116-.172.716c-2.213 9.407-1.666 19.223-5.747 28.241l-132.832.159c-1.044 1.725-.665 4.331-.352 6.26l-.653 1.628c1.193 1.193 2.624.886 4.273 1.002-1.902.36-3.754.262-4.948 1.924-1.88 2.619-2.812 6.303-3.317 9.429l-1.52-1.862c.97-2.726 1.277-6.195 1.849-9.057l2.995-13.933c.2-1.025.391-1.586.926-2.5l.938-.081.608-.855.913-.609c.844-2.017 2.173-4.864 1.816-7.097-.345-2.153-3.66-4.452-5.389-5.684l-2.139-.637c-5.758-1.688-9.502-5.779-14.997-7.666z" fill="#fe3100"/><path d="m914.712 577.392c6.747-.286 13.083-.008 19.788.583 4.192.37 8.337.146 12.499.966 6.523 1.286 12.13 6.575 16.858 10.91l.433.399-.29.264c-2.491-1.819-4.855-3.894-7.68-5.186-6.513-2.978-17.514-3.578-24.524-2.633-2 .269-4.055.039-6.046.406-4.143.763-9.775 4.261-12.3 7.477l-.767 1.034c.819.898 1.818.989 2.949 1.233.562 1.489-.086 3.562-.669 5.04-1.492 3.783-6.376 8.838-9.211 11.851l7.242-1.647c1.706.908 3.164 1.196 5.055 1.53-9.716 1.605-19.298 1.922-29.13 1.944l-2.554-.143-29.773-.719c-2.266.009-4.581-.044-6.842.105-1.097.072-2.276.449-3.364.282-6.486-.996-13.454-.554-20.024-.563l-36.358-.598-.515-.667c2.552-5.65 3.054-12.363 4.264-18.405.505-3.126 1.437-6.81 3.317-9.429 1.194-1.662 3.046-1.564 4.948-1.924l89.522-.373c5.186-.151 13.41 1.249 18.045-.815 1.643-.732 3.354-.774 5.127-.922z" fill="#fd5400"/><path d="m781.681 650.654c.273.266.461.667.819.797.607.221 2.117.02 2.863.027l7.645.066 45.711.22 18.392.148c-7.194 3.925-12.987 7.961-17.516 14.96l-.446.672c4.176-1.06 8.148-2.129 12.49-2.202l.113.403c.532 1.993.348 5.302 1.079 7.005.094.22.95.802 1.183 1.052l-.264.986c3.878 2.776 9.489 3.378 14.109 4.013l-2.604 2.449c.083.976.347 2.225.206 3.18-.453-.746-.944-2.084-1.813-2.293-6.416-1.541-18.776 3.662-23.983 7.308-2.583 1.81-3.454 2.441-6.708 2.379l-1.207.715-.5-.307c.974-1.177 2.003-2.558 3.369-3.293 2.777-1.496 6.466-1.455 8.631-3.881-.277-2.876-5.452-7.012-7.64-8.808-2.663-2.186-5.244-2.862-8.639-2.464-1.516.177-2.976.279-4.221 1.238l-1 1.797c-3.525-.248-6.792-2.266-10.25-1.336l-5.066 1.261c.488 1.9 2.828 3.345 3.165 5.149-4.215-.733-7.479-1.678-11.476.355l-.557.75 19.42 10.71c-2.578.604-5.359 1.413-8.003 1.459-2.764.047-5.761-.5-8.483-.167-5.707.699-12.494 4.767-15.98 9.248.488 1.313 1.025 1.227 2.23 1.783 3.174-.379 6.18-1.756 9.331-2.393 2.935-.595 6.429-1.503 9.419-1.5 2.854.003 6.061.986 8.847 1.574 3.064.647 6.127 1.029 9.173 1.795-6.303 1.793-10.447 4.271-15.943 7.741-.053 2.167-.18 4.71 1.342 6.453.842.963 2.27 1.912 3.581 1.932.592.009.555-.103 1.103-.426 2.963-1.745 6.067-2.695 9.335-3.709-3.282 6.333-5.999 13.07-9.934 19.037-8.691-2.362-14.71-2.117-22.525 2.61-1.657 1.002-3.018 2.648-4.316 4.064-4.442 4.847-6.609 9.013-7.944 15.452l-.642 3.422c-2.831-.23-5.737-.552-8.577-.559-1.977-.005-3.965.41-5.918.351l-1.905-1.053c-.465-3.287.427-5.89 1.031-9.074l2.042-11.288 6.23-34.067c1.044-5.013 3.192-10.864 2.92-15.954l.329-1.95c2.43-4.506 2.801-10.354 3.659-15.358 1.287-7.503 2.482-15.084 4.293-22.479z" fill="#fe3100"/><path d="m347.461 721.554.808-.082 2.394 10.089c.527 2.752.892 6.009.446 8.779 4.815.319 9.862.562 14.586 1.593 7.095 1.549 14.013 4.65 20.87 7.053l15.714 4.958c5.231 1.767 10.612 4.682 16.196 4.724 4.069 1.533 7.487 4.084 10.986 6.612l-2.007.028-69.921-3.64-34.869-1.038c-2.436-.055-13.66.146-15.238-.738-.738-.413-2.157-2.69-2.926-3.47-1.432-.004-2.71-.111-4.029.546-.379.827-.662 1.519-1.309 2.182-.569.584-1.018.412-1.818.444-11.993.48-24.31-.75-36.341-.985l-72.307-1.23-26.011-1.019-3.776-22.711 134.341 3.904 35.674 1.484c6.065.283 12.419 1.199 18.45.76 1.746-1.703 1.133-4.396 1.176-6.794.016-3.897.054-7.691-1.089-11.449z" fill="#fdfabc"/><path d="m241.569 570.848-.335-.466c-1.005-1.379-1.981-2.485-3.286-3.582 2.306 1.146 4.333 2.178 6.886 2.667 2.917.559 3.359 1.488 4.916 3.871l.952 1.51 40.602 1.707 33.984.007 117.076.522 20.052.202c5.208.18 11.255.916 16.377-.011.097-1.085.502-1.882.925-2.872l-7.56 33.289-1.402 3.433c-.825 2.114-1.765 4.238-2.316 6.44-4.912-1.278-10.862-1.055-15.928-1.075l-22.702-.033-58.879-.406c-14.392-.018-28.983.458-43.341-.5-.647-.893-.84-2.525-1.123-3.61l-1.658.642-.584-3.344c-.396-4.241-.241-10.47-2.305-14.232-3.009-2.644-11.006-2.605-15.055-3.311l-10.428-2.134c-4.136-.739-8.367-1.216-12.41-2.379l-3.375-.974-36.088-6.732-9.112-2.32c-1.933-1.662-4.081-2.456-5.99-4.359 4.53.477 8.197 1.731 12.524 2.933-.179-1.141-.844-1.904-1.725-2.632l-.464-.349c.325-.965 1.001-1.265 1.772-1.902z" fill="#fd5400"/><path d="m241.569 570.848c2.527-.924 3.422-.142 5.801.902 2.037 3.134 1.32 4.57 5.423 5.816-3.567-.277-7.442-.576-10.807-1.835-.179-1.141-.844-1.904-1.725-2.632l-.464-.349c.325-.965 1.001-1.265 1.772-1.902z" fill="#fd8706"/><path d="m229.462 572.798c4.53.477 8.197 1.731 12.524 2.933 3.365 1.259 7.24 1.558 10.807 1.835l23.707 4.297c3.418.719 6.848 1.154 10.196 2.185-2.265-.109-4.285-.439-6.321.68l-.629.297.254.353 1.092.141-.44.69-36.088-6.732-9.112-2.32c-1.933-1.662-4.081-2.456-5.99-4.359z" fill="#fdf567"/><path d="m280.652 586.209.44-.69-1.092-.141-.254-.353.629-.297c2.036-1.119 4.056-.789 6.321-.68l36.27 6.87c1.119 3.9 2.288 7.823 2.912 11.84.378 2.439.192 5.33.814 7.664l-.225 1.519-1.658.642-.584-3.344c-.396-4.241-.241-10.47-2.305-14.232-3.009-2.644-11.006-2.605-15.055-3.311l-10.428-2.134c-4.136-.739-8.367-1.216-12.41-2.379z" fill="#fdfabc"/><path d="m291.304 576.555 33.984.007 117.076.522 20.052.202c5.208.18 11.255.916 16.377-.011l-1.302 1.662c-2.575 1.003-6.893.271-9.741.276l-22-.025-70.575.397-39.913-.504-32.573.442c-3.525-.115-8.873-.263-11.385-2.968z" fill="#fc1b01"/><path d="m326.692 610.422 99.451.518 26.775-.17c5.914-.067 11.972-.456 17.838.355-.825 2.114-1.765 4.238-2.316 6.44-4.912-1.278-10.862-1.055-15.928-1.075l-22.702-.033-58.879-.406c-14.392-.018-28.983.458-43.341-.5-.647-.893-.84-2.525-1.123-3.61z"/><path d="m480.776 570.56c-5.759-.857-11.951-.499-17.774-.535l-41.935.259-126.667-.675-25.847-.036c-5.033.019-10.58.417-15.546-.387-.837-.136-2.336-.282-3.083-.655-2.47-1.233-4.465-4.361-7.132-5.794-3.013-1.618-6.49-2.279-9.803-2.998 3.738-3.05 10.648-3.321 15.282-4.087l14.945-2.456c-5.458-2.053-24.563-6.357-29.75-4.233-2.531 1.037-4.369-.579-6.827-1.353-1.732-.545-3.335-.66-5.139-.491-4.267.398-9.605 1.586-13.5 3.402-2.27 1.058-4.801 2.966-7.25 3.398-.212-1.435.664-2.216 1.406-3.419-.833-.867-1.026-.73-2.156-.958-2.45 1.463-5.077 5.851-6.902 8.182-1.225-1.698-2.251-3.281-2.922-5.279-.918-2.731-1.244-6.765-3.268-8.873-1.922-2.003-8.75-5.318-9.364-7.465 3.243.206 6.639 4.223 10.074 4.986l.696.133c3.984.785 8.107.921 12.16.969l39.776-.511 53.301-.117 137.449.092 38.537.216 11.519.09c1.659.008 3.553.246 5.142-.231l.555-.227c-.245 3.742-1.404 7.39-2.237 11.037z" fill="#fe3100"/><path d="m85.0817 457.673c6.3578-.445 12.833-.237 19.2083-.247l46.299.506 69.749-.446 24.838.505 38.074-.091 91.274-.425 101.084.471 16.991-.424 124.026.183 63.124-.189 131.387.098 40.836.001c5.613.006 12.531.832 18.007-.041 6.834.578 13.841.301 20.705.312l34.264.036 7.802.039c1.689.089 3.123.58 4.827.24l.923-.655c1.225 2.021.194 7.522.694 10.097-1.512.407-3.022.343-4.581.381l-319.925.118-1.235-2.502c-3.012-.544-6.839-.101-9.929-.092l-21.157.035-88.668.073-52.605-.095c-3.147.351-6.332.551-9.422 1.249-6.624 1.496-12.385-.827-18.968-.762-2.923.028-6.174.951-8.864 2.089-1.4.97-47.284-.043-51.664-.215-3.074.507-6.957.08-10.133.083l-23.738-.011-83.118-.057-2.176-.68-92.173-1.773-5.093.266-.745.495c-2.268.927-6.537.496-9.08.78-3.156.353-6.586-.286-9.78-.346-3.993-.075-7.881.266-11.902.015-6.3266-.395-12.1797-1.008-18.229 1.476l-1.3651-.252c-.2873-2.347-.7024-8.327.4378-10.245z" fill="#ffdf20"/><path d="m931.082 464.877c-1.425-.616-2.312-.637-3.827-.627 1.342-.266 2.636-.324 3.998-.375l-.253-.375c-2.017.032-4.965.471-6.75-.5l-.625-.917c2.461-.181 4.972-.093 7.412.267 1.941.287 2.43-.256 3.961-1.415l2.251-1.629.001 6.575c-1.327 1.079-1.535 1.04-3.262 1.18-.924-.836-1.874-1.492-2.906-2.184z" fill="#fef023"/><path d="m198.364 462.564 12.386.108.495-.672c-1.188-.866-3.015-.669-4.49-.75 1.551-.451 1.925-.4 3.495-.25 1.371.131 3.643.238 4.75-.5l3.625-.19c1.955-.192 3.925-.025 5.875.067l.641-.004c1.901 0 3.308.214 5.109.627l1.587.163.913.337 1.25.25.64.148c.795.159 1.297.061 2.041-.218 2.187-.823 4.685.442 6.819-.68l1-.25.528-.141c1.307-.261 4.613-.417 5.717.141-2.552 1.654-5.617-.403-8.495 1.995-1.994-.036-4.225-.341-6.049.574-2.609-.935-4.939-1.525-7.701-1.92l-.765-.122c-2.898-.429-12.477-.919-14.653.924-.611.517-1.175 1.607-1.582 2.277-1.562.751-3.321.118-5.001.067-3.774-.114-7.656-.269-11.423-.056 1.984-.367 2.017-.2 3.288-1.925z" fill="#ffe621"/><path d="m826.014 464.508c-8.319-.88-17.526-.02-25.936.035-3.98.026-7.944.277-11.828-.733l.505-.56-.612-.452c4.773-.98 11.275.154 16.212.274l18.294-.354.611.095c.821.173 1.125.413 1.74.942 6.346.042 13.814-.631 20.015.306-6.121.84-12.828.689-19.001.447z" fill="#fef023"/><path d="m822.649 462.718 29.851-.326c5.381.002 10.898-.571 16.25.14l.137.911c-2.117 1.434-16.186.574-19.971.737l-3.901-.119c-6.201-.937-13.669-.264-20.015-.306-.615-.529-.919-.769-1.74-.942z" fill="#fdf567"/><path d="m148.685 464.87c1.793-.834 3.875-.614 5.815-.615 1.347-1.09 2.064-1.32 3.797-1.389 1.978-.08 3.983-.522 5.953-.389 5.343.36 10.881-.199 16.25-.268l17.864.355c-1.271 1.725-1.304 1.558-3.288 1.925z" fill="#fdf567"/><path d="m85.0817 457.673.1574 5.91 55.5749 1.512.024.389-5.093.266-.745.495c-2.268.927-6.537.496-9.08.78-3.156.353-6.586-.286-9.78-.346-3.993-.075-7.881.266-11.902.015-6.3266-.395-12.1797-1.008-18.229 1.476l-1.3651-.252c-.2873-2.347-.7024-8.327.4378-10.245z" fill="#fc7c04"/><path d="m374.293 465.54 66.801.021c-3.147.351-6.332.551-9.422 1.249-6.624 1.496-12.385-.827-18.968-.762-2.923.028-6.174.951-8.864 2.089-1.4.97-47.284-.043-51.664-.215.853-.303 1.727-.393 2.574-.667 2.361-.765 4.697-.37 7.153-.414 3.957-.072 8.544-.403 12.39-1.301z" fill="#fc7c04"/><path d="m195.076 464.489c3.767-.213 7.649-.058 11.423.056 1.68.051 3.439.684 5.001-.067.407-.67.971-1.76 1.582-2.277 2.176-1.843 11.755-1.353 14.653-.924l.765.122c2.762.395 5.092.985 7.701 1.92 5.704 2.436 11.91.261 17.799.751 5.515.459 12.515.043 17.761 1.438l-27.269.847c-3.596.169-8.068-.14-11.481.902l-92.173-1.773-.024-.389 7.871-.225z" fill="#ffc001"/><path d="m271.761 465.508 102.532.032c-3.846.898-8.433 1.229-12.39 1.301-2.456.044-4.792-.351-7.153.414-.847.274-1.721.364-2.574.667-3.074.507-6.957.08-10.133.083l-23.738-.011-83.118-.057-2.176-.68c3.413-1.042 7.885-.733 11.481-.902z" fill="#fd8706"/><path d="m845.015 464.061 3.901.119c1.145.541 1.229.793 2.519.578 3.159-.526 6.826-.164 10.032-.112l24.418.803 45.197-.572c1.032.692 1.982 1.348 2.906 2.184l.625.963-319.925.118-1.235-2.502 212.561-1.132c6.173.242 12.88.393 19.001-.447z" fill="#fd8706"/><path d="m741.829 526.281c2.398 2.99 5.948 5.008 9.243 6.878 5.258 2.985 11.162 5.82 15.941 9.49l5.383 3.041c2.965.801 5.208 2.731 8.039 3.629l1.32-.382c2.957 1.956 5.902 3.922 9.12 5.438l.875-.375 1.25-.25c.345-.855.242-1.031 1.031-1.505 1.198-.72 1.974-2.009 2.858-3.068 1.729 1.232 5.044 3.531 5.389 5.684.357 2.233-.972 5.08-1.816 7.097l-.913.609-.608.855-.938.081c-.535.914-.726 1.475-.926 2.5l-2.995 13.933c-.572 2.862-.879 6.331-1.849 9.057l1.52 1.862c-1.21 6.042-1.712 12.755-4.264 18.405l.515.667-1.466.573c-.39 1.422-.558 2.091-.177 3.569l1.066.879-1.478.325c-1.84 3.651-2.6 8.948-2.334 13.026l-3.934 22.355c-1.811 7.395-3.006 14.976-4.293 22.479-.858 5.004-1.229 10.852-3.659 15.358l-.329 1.95c.272 5.09-1.876 10.941-2.92 15.954l-6.23 34.067-2.042 11.288c-.604 3.184-1.496 5.787-1.031 9.074l1.905 1.053-1.387.288c-.779 2.177-1.873 4.365-3.603 5.949-5.293 4.844-13.396 8.218-19.592 11.897l-17.736 11.633c-1.607-3.785-1.587-9.354-2.489-13.507l-8.246-35.069c-1.837-7.636-4.658-16.13-4.562-24.011.107-8.812 2.384-17.396 4.13-25.963l4.362-21.622c.567-2.386 1.519-4.699 1.976-7.099.48-2.522.563-5.11 1.055-7.623l8.995-46.126 5.079-23.913 4.952-29.076 3.234-15.251c.951-5.362 1.436-10.775 2.579-16.103z" fill="#dc0500"/><path d="m767.013 542.649 5.383 3.041c2.965.801 5.208 2.731 8.039 3.629l1.32-.382c2.957 1.956 5.902 3.922 9.12 5.438l.875-.375 1.25-.25c.345-.855.242-1.031 1.031-1.505 1.198-.72 1.974-2.009 2.858-3.068 1.729 1.232 5.044 3.531 5.389 5.684.357 2.233-.972 5.08-1.816 7.097l-.913.609-.608.855-.938.081c-.535.914-.726 1.475-.926 2.5l-2.995 13.933c-.572 2.862-.879 6.331-1.849 9.057l1.52 1.862c-1.21 6.042-1.712 12.755-4.264 18.405l.515.667-1.466.573c-.39 1.422-.558 2.091-.177 3.569l1.066.879-1.478.325c-1.84 3.651-2.6 8.948-2.334 13.026l-3.934 22.355c-1.811 7.395-3.006 14.976-4.293 22.479-.858 5.004-1.229 10.852-3.659 15.358l-.329 1.95c-10.749-2.406-21.896-6.372-31.871-11.025 3.291-10.479 4.087-21.73 6.109-32.489l7.897-42.718 3.067-19.118 3.084-13.576 3.346-19.532c.605-3.189.881-6.254 1.981-9.334z"/><path d="m771.12 627.959c-3.744-5.013-9.598-3.063-13.509-6.709-.583-2.234.481-4.011.775-6.223l4.445-26.116c.508-3.006.512-6.077 1.057-9.065l6.615-30.259c4.173 3.814 9.462 6.167 13.938 9.597-.611 3.189-.977 6.432-1.777 9.566l-8.522 44.408z" fill="#047a70"/><path d="m772.396 545.69c2.965.801 5.208 2.731 8.039 3.629l1.32-.382c2.957 1.956 5.902 3.922 9.12 5.438l.875-.375 1.25-.25c.345-.855.242-1.031 1.031-1.505 1.198-.72 1.974-2.009 2.858-3.068 1.729 1.232 5.044 3.531 5.389 5.684.357 2.233-.972 5.08-1.816 7.097l-.913.609-.608.855-.938.081c-.535.914-.726 1.475-.926 2.5l-2.995 13.933c-.572 2.862-.879 6.331-1.849 9.057l1.52 1.862c-1.21 6.042-1.712 12.755-4.264 18.405l.515.667-1.466.573c-.39 1.422-.558 2.091-.177 3.569l1.066.879-1.478.325c-1.84 3.651-2.6 8.948-2.334 13.026l-3.934 22.355c-1.811 7.395-3.006 14.976-4.293 22.479-.858 5.004-1.229 10.852-3.659 15.358-1.209-2.492-5.915-3.612-8.379-4.72-2.158-.972-3.973-2.083-5.884-3.481 3.698-8.264 4.695-18.453 6.87-27.288 1.3-5.282 3.653-11.124 4.061-16.502-.69-1.203-1.116-2.163-1.48-3.5.227-1.911 1.257-3.41 2.203-5.041l3.022-14.801 8.522-44.408c.8-3.134 1.166-6.377 1.777-9.566l2.391-3.714c-2.542-2.066-5.286-4.158-8.082-5.857-2.084-1.265-4.219-1.89-6.043-3.615z" fill="#b30402"/><path d="m792.233 588.993 1.52 1.862c-1.21 6.042-1.712 12.755-4.264 18.405l-.385-.445c-.416-2.322.17-4.523.579-6.815z" fill="#dc0500"/><path d="m780.435 549.319 1.32-.382c2.957 1.956 5.902 3.922 9.12 5.438l.875-.375 1.25-.25c.345-.855.242-1.031 1.031-1.505 1.198-.72 1.974-2.009 2.858-3.068 1.729 1.232 5.044 3.531 5.389 5.684.357 2.233-.972 5.08-1.816 7.097l-.913.609c-2.63-6.674-13.821-8.576-19.114-13.248z" fill="#ffe621"/><path d="m470.756 611.125 1.402-3.433c.106 3.681-1.047 6.304-2.041 9.733-.674 2.327-.692 4.889-1.486 7.157-1.163 3.321-2.745 6.165-3.604 9.668l-2.367 11.883c-.337 1.698-.6 4.362-1.425 5.865-1.911 5.944-2.934 12.192-4.41 18.252l-5.277 21.358c-1.557 6.33-3.313 12.906-3.101 19.478 1.375 1.567 2.789 3.069 3.863 4.865 1.903-.502 3.201-1.38 4.812-2.488 1.861 4.925 4.531 9.145 6.863 13.818 2.974 5.958 5.747 12.249 9.116 17.982 3.695 6.289 7.817 12.09 10.912 18.731-1.223 2.449-1.232 9.794-2.912 10.989l-.698-.978-.737-.435c-3.146-.364-6.148.696-9.172 1.483-4.052-7.747-6.044-16.507-12.637-22.842-4.761-4.576-10.912-7.878-17.607-7.745-9.294.186-15.894 8.081-21.775 14.202-5.584-.042-10.965-2.957-16.196-4.724l-15.714-4.958c-6.857-2.403-13.775-5.504-20.87-7.053-4.724-1.031-9.771-1.274-14.586-1.593.446-2.77.081-6.027-.446-8.779l-2.394-10.089-.808.082-.332-.08c-1.188-11.76-5.089-23.73-7.419-35.352l-14.901-73.539 1.658-.642c.283 1.085.476 2.717 1.123 3.61 14.358.958 28.949.482 43.341.5l58.879.406 22.702.033c5.066.02 11.016-.203 15.928 1.075.551-2.202 1.491-4.326 2.316-6.44z" fill="#fe3100"/><path d="m452.31 715.951c1.903-.502 3.201-1.38 4.812-2.488 1.861 4.925 4.531 9.145 6.863 13.818 2.974 5.958 5.747 12.249 9.116 17.982 3.695 6.289 7.817 12.09 10.912 18.731-1.223 2.449-1.232 9.794-2.912 10.989l-.698-.978c.263-4.47-.221-7.336-1.886-11.505-2.844-7.123-8.2-13.923-12.089-20.569l-9.429-17.931z" fill="#ffe621"/><path d="m470.756 611.125 1.402-3.433c.106 3.681-1.047 6.304-2.041 9.733-.674 2.327-.692 4.889-1.486 7.157-1.163 3.321-2.745 6.165-3.604 9.668l-2.367 11.883c-.337 1.698-.6 4.362-1.425 5.865-6.123-.64-12.322-.432-18.472-.436l-27.607.033-80.471-.131 8.822 45.189c1.607 8.155 4.334 16.524 4.762 24.819l-.808.082-.332-.08c-1.188-11.76-5.089-23.73-7.419-35.352l-14.901-73.539 1.658-.642c.283 1.085.476 2.717 1.123 3.61 14.358.958 28.949.482 43.341.5l58.879.406 22.702.033c5.066.02 11.016-.203 15.928 1.075.551-2.202 1.491-4.326 2.316-6.44z" fill="#ffc001"/><path d="m327.59 615.551c14.358.958 28.949.482 43.341.5l58.879.406 22.702.033c5.066.02 11.016-.203 15.928 1.075-.297 3.085-.78 5.759-1.762 8.701l-133.232-.232c-.986.056-2.134 1.254-2.739 1.984l-.475.62z" fill="#fe3100"/><path d="m95.9774 829.528-.0722-58.078 18.6638.126-6.807 6.547-.137 1.36c-.201 3.349.236 6.078 2.414 8.767 3.133 3.868 8.884 4.469 13.464 5.269 4.793.838 9.72 1.64 14.579 1.912 9.26.518 41.112 1.161 47.268-4.959 1.212-1.204.205-1.967 1.712-2.702l139.438 20.215c.682.389 3.077 2.002 3.697 1.869 10.279 4.937 20.043 9.301 29.282 16.13.149 1.18.362 2.199-.061 3.35-2.499 2.787-1.907 6.235-1.718 9.785l.378 3.635 298.905.796 2.648-5.049 61.064 3.047 10.272 1.151c7.347.563 15.213.151 22.437 1.358l.548.088c4.943.754 9.938.436 14.798 1.673 2.115.538 4.302.668 6.422 1.299 2.767.823 4.762 2.296 7.724 2.797-8.79 1.039-17.717.663-26.553.638l-36.031.008-126.062.26-43.229.716c-5.166.17-10.932-.242-16.012.521l-266.87.434c-2.513-.344-4.763-1.132-7.208-1.552-2.785-.478-5.881-.428-8.705-.551-1.559-1.322-2.705-2.378-3.73-4.158-1.02.333-1.952.662-3.02.808l-3.466-1.206c-1.64.666-3.409 1.371-5.181 1.548-3.37.335-7 .047-10.403.062l-21.092.03-54.272-.131-32.608-.036c-7.465.013-15.268.423-22.6705-.544z" fill="#fdfabc"/><path d="m212.545 829.368-.522-.684c-4.296-5.489-11.043-9.595-16.38-14.093 5.191 2.524 9.806 5.642 14.857 8.313 10.238 5.412 20.544 10.48 30.283 16.799 2.731 1.772 6.303 3.488 7.713 6.527-1.02.333-1.952.662-3.02.808l-3.466-1.206c-4.413-1.579-7.667-3.805-11.587-6.197l-17.428-10.018z"/><path d="m212.545 829.368.45.249 17.428 10.018c3.92 2.392 7.174 4.618 11.587 6.197-1.64.666-3.409 1.371-5.181 1.548-3.37.335-7 .047-10.403.062l-21.092.03-54.272-.131-32.608-.036c-7.465.013-15.268.423-22.6705-.544l.1939-17.233z" fill="#dc0500"/><path d="m187.355 518.326 16.948.474c2.721.072 5.841.48 8.495.041-2.504-1.704-5.073-2.971-7.64-4.518-4.745-2.86-9.124-5.804-14.336-7.832l749.712.01c-.108 9.657-.91 19.503-2.614 29.002-16.476-1.462-33.636-.159-50.17-.108l-38.03-.409-32.22.406c-15.288-.005-30.094-.847-45.263 1.854 2.299 1.32 4.872 3.235 7.516 3.628 5.495 1.887 9.239 5.978 14.997 7.666l2.139.637c-.884 1.059-1.66 2.348-2.858 3.068-.789.474-.686.65-1.031 1.505l-1.25.25-.875.375c-3.218-1.516-6.163-3.482-9.12-5.438l-1.32.382c-2.831-.898-5.074-2.828-8.039-3.629l-5.383-3.041c-4.779-3.67-10.683-6.505-15.941-9.49-3.295-1.87-6.845-3.888-9.243-6.878-.225-1.695-.581-2.171-1.742-3.426l-.883.156-.383-1.965c-3.403-1.473-5.803-1.82-9.468-1.894l-178 6.315-36.459 1.346c-4.265.156-10.046-.283-14.144.683-.81.191-1.4.69-2 1.232l-1.25-.713c-1.303.561-2.537 1.076-3.705 1.898-1.736 1.769-3.466 3.488-4.969 5.466-3.929-1.378-10.774.035-15.076-.024l-80.339-.013-173.422-.359c-2.086.03-4.136.436-6.235.475-6.184.116-12.354-.603-18.533-.801-1.751-.057-5.907.373-7.409-.201-2.885-1.104-6.878-5.683-9.13-7.863l23.527.805c-2.872-2.027-6.913-3.387-10.117-4.908-1.758-1.281-3.255-2.571-4.737-4.164z" fill="#fe3100"/><path d="m738.821 521.046c6.304 1.533 10.278 4.017 15.929 6.881 2.579 1.307 5.288 2.309 7.801 3.753 3.202 1.84 6.269 4.167 9.686 5.566 2.299 1.32 4.872 3.235 7.516 3.628 5.495 1.887 9.239 5.978 14.997 7.666l2.139.637c-.884 1.059-1.66 2.348-2.858 3.068-.789.474-.686.65-1.031 1.505l-1.25.25-.875.375c-3.218-1.516-6.163-3.482-9.12-5.438l-1.32.382c-2.831-.898-5.074-2.828-8.039-3.629l-5.383-3.041c-4.779-3.67-10.683-6.505-15.941-9.49-3.295-1.87-6.845-3.888-9.243-6.878-.225-1.695-.581-2.171-1.742-3.426l-.883.156z" fill="#ffdf20"/><path d="m152.195 580.263 166.908 33.374 20.243 101.367c-8.453-1.305-17.063-1.244-25.584-1.547l-15.762-.832-26.46-.19-57.534-2.134-33.071-.725c-1.911-.137-4.007.27-5.84-.254z" fill="#047a70"/><path d="m158.998 492.701-.412.222c-3.107 1.484-5 3.929-7.705 5.956-3.385 2.537-7.588 3.783-11.528 5.192-3.415-6.069-7.43-13.469-12.603-18.216-1.06-.973-1.589-1.223-3-1.121l.008 1.266-.508-.119-.085-1.381c-1.342-1.4-2.461-3.04-3.623-4.591l-.439.091.24 3.443c-.882.209-5.538-3.33-6.776-3.949-3.197-1.599-7.332-1.404-10.817-2.025-2.9417-.523-6.0996-1.443-8.9611-2.334 2.1388-.183 4.3143.247 6.4611.245l11-.368 24.28.8 57.621.176 231.099.136 131.428-.144 27.461.032c3.63-.044 7.655-.731 11.219-.304 4.858.582 10.078.28 14.982.313l33.804-.303 14.803.328 55.803-.002 149.051.144 78.016-.59.269 4.464c.907 6.437.871 13.418.5 19.904-1.831.947-6.94.418-9.16.419l-29.926-.208-47.75.256-55.5-.374-139.929-.075-82.459.476-166.029-.405-157.731.143c-19.849-.096-39.916.986-59.734-.091-2.487-.135-4.073-1.508-6.164-2.645-2.325-1.264-4.701-2.447-7.146-3.461-3.708-1.537-7.482-2.506-11.413-3.268l-3.921-1.382c-1.281.971-3.266 2.896-4.726 3.35z" fill="#fe3100"/><path d="m924.008 451.671-838.085.28c.9741-8.765 1.5304-17.746 3.7557-26.296l64.2643-.071 16.716.423 9.841-.428 49.994.27 170.256.149c3.837.043 7.666-.459 11.513-.45l80.981-.017 217.756.319 171.172-.11 36.5-.222c4.279-.029 10.208-.835 14.313.099.978 3.076 2.082 6.21 2.648 9.394.921 5.177 1.047 10.955 1.552 16.239-.41.195-.795.401-1.234.522z" fill="#ffc001"/><path d="m493.795 529.913c1.168-.822 2.402-1.337 3.705-1.898l1.25.713c.6-.542 1.19-1.041 2-1.232 4.098-.966 9.879-.527 14.144-.683l36.459-1.346 178-6.315c3.665.074 6.065.421 9.468 1.894l.383 1.965-.089.447c.099 4.398-1.207 9.181-2.063 13.48l-4.793 23.816-20.052 102.858c-3.141 15.818-7.608 31.527-9.019 47.633l-244.006.308-2.06 1.91c-1.611 1.108-2.909 1.986-4.812 2.488-1.074-1.796-2.488-3.298-3.863-4.865-.212-6.572 1.544-13.148 3.101-19.478l5.277-21.358c1.476-6.06 2.499-12.308 4.41-18.252.825-1.503 1.088-4.167 1.425-5.865l2.367-11.883c.859-3.503 2.441-6.347 3.604-9.668.794-2.268.812-4.83 1.486-7.157.994-3.429 2.147-6.052 2.041-9.733l7.56-33.289c-.071-.77.822-3.007 1.058-3.843l3.74-18.016c.833-3.647 1.992-7.295 2.237-11.037.501-2.152 1.222-4.092 2.073-6.128 1.503-1.978 3.233-3.697 4.969-5.466z" fill="#4efef8"/><path d="m692.788 591.657 2.016-10.186c1.409 2.844.981 4.465 1.023 7.451-.964 1.412-1.531 1.929-3.039 2.735z" fill="#53ecee"/><path d="m493.795 529.913c1.168-.822 2.402-1.337 3.705-1.898l1.25.713c.6-.542 1.19-1.041 2-1.232 4.098-.966 9.879-.527 14.144-.683l36.459-1.346 178-6.315c3.665.074 6.065.421 9.468 1.894l.383 1.965-.089.447c-8.351 1.896-18.264.765-26.865 1.126l-17.509.924c-1.705.017-4.084.318-5.721-.032-11.075 1.446-22.365 1.06-33.505 1.556l-43.043 2.558c-7.431.402-15.575.013-22.862 1.479-5.233 1.304-12.174.356-17.61.516l-33.75 1.979-21.516.531c-4.204.034-10.176-.889-14.116.437-1.239 1.625-2.18 3-2.92 4.911-2.038 5.225-2.538 10.351-3.789 15.749l-7.335 32.067-4.897 18.489-5.493 25.419-4.742 23.059-3.169 12.465c-3.27 15.074-6.483 30.124-11.091 44.862l-2.06 1.91c-1.611 1.108-2.909 1.986-4.812 2.488-1.074-1.796-2.488-3.298-3.863-4.865-.212-6.572 1.544-13.148 3.101-19.478l5.277-21.358c1.476-6.06 2.499-12.308 4.41-18.252.825-1.503 1.088-4.167 1.425-5.865l2.367-11.883c.859-3.503 2.441-6.347 3.604-9.668.794-2.268.812-4.83 1.486-7.157.994-3.429 2.147-6.052 2.041-9.733l7.56-33.289c-.071-.77.822-3.007 1.058-3.843l3.74-18.016c.833-3.647 1.992-7.295 2.237-11.037.501-2.152 1.222-4.092 2.073-6.128 1.503-1.978 3.233-3.697 4.969-5.466z" fill="url(#g)"/><path d="m729.353 519.152c3.665.074 6.065.421 9.468 1.894l.383 1.965-.089.447c-8.351 1.896-18.264.765-26.865 1.126l-17.509.924c-1.705.017-4.084.318-5.721-.032-1.489-.623-2.638-.694-4.239-.537l-.531.061c.037-.793.015-1.247-.258-2.014l-.245-.611c4.061-.359 7.935-1.724 12.003-2.071 9.197-.784 18.993-.099 28.25-.059 1.703-1.131 3.918.255 5.353-1.093z" fill="#fdfabc"/><path d="m502.618 534.532c3.94-1.326 9.912-.403 14.116-.437l21.516-.531 33.75-1.979c5.436-.16 12.377.788 17.61-.516l1.582 7.186c3.618-.007 8.954-.728 12.349.298 1.127.34 2.307.425 3.473.561l97.246-2.639-.257.622c-1.926 4.781-2.511 10.057-3.505 15.093l-5.694 29.281-2.016 10.186-20.82 103.008-197.279.279 33.336-151.502c-1.151-2.926-4.382-.983-6.458-2.774-.847-.731.26-.028-1.166-.84l-.703-.385c.74-1.911 1.681-3.286 2.92-4.911z"/><path d="m502.618 534.532c3.94-1.326 9.912-.403 14.116-.437l21.516-.531 33.75-1.979c5.436-.16 12.377.788 17.61-.516l1.582 7.186c3.618-.007 8.954-.728 12.349.298 1.127.34 2.307.425 3.473.561l-88.764 2.887-7.261.167c-.28.004-1.672-.047-1.831.029-.507.241-.755.83-1.133 1.245-1.151-2.926-4.382-.983-6.458-2.774-.847-.731.26-.028-1.166-.84l-.703-.385c.74-1.911 1.681-3.286 2.92-4.911z" fill="#53ecee"/><path d="m0 853.603c2.15545-3.243 1.6707-7.961 1.77209-11.822l.09181 4.753c18.3841-1.49 37.4651-.614 55.9161-.555l22.0136.1c5.3977.026 10.6238-.114 15.9899.682 7.4025.967 15.2055.557 22.6705.544l32.608.036 54.272.131 21.092-.03c3.403-.015 7.033.273 10.403-.062 1.772-.177 3.541-.882 5.181-1.548l3.466 1.206c1.068-.146 2-.475 3.02-.808 1.025 1.78 2.171 2.836 3.73 4.158 2.824.123 5.92.073 8.705.551 2.445.42 4.695 1.208 7.208 1.552l266.87-.434c5.08-.763 10.846-.351 16.012-.521l43.229-.716 126.062-.26 36.031-.008c8.836.025 17.763.401 26.553-.638 5.35-.902 10.546-.931 15.951-.942l81.153 2.913c4.662-.499 9.842.672 14.545.94l15.195.126 67.698-.415 44.272.411.39-2.63c.38-1.779.85-2.962 1.9-4.451v28.87 147.264 2h-16.1-62.824-180.716-104.795-33.502-34.129-31.871-65.422-43.719-34.062-56.36-10.489-9.645-36.866-29.139-23.303-251.058v-2-29.125-116.907z"/><path d="m747.174 944.581c2.687-.065 6.091-.593 8.576.509l-.015 1.16-1.243.85z" fill="#01292a"/><path d="m520.163 958.201c-1.206-.073-1.915-.027-2.913-.784l.102-2.427c.955-1.51.989-1.694 2.729-2.407z" fill="#4dd088"/><path d="m561.118 923.75c1.673-.352 3.425-.361 5.132-.457l.835.957-.626 1.5-.758.574c-1.566-.209-2.755-.736-4.18-1.401z" fill="#0cb7c3"/><path d="m451.066 923.074c.467-.102.659-.18 1.184-.101 1.154.173 1.925.838 2.495 1.777l-3.495 2.312-.982.342c-1.043-.888-2.189-1.705-2.885-2.904 1.122-.691 2.435-1.012 3.683-1.426z" fill="#fdfabc"/><path d="m624.487 952.53c.562 1.317.878 2.935.352 4.34-.248.663-.376.753-.773 1.238-1.657.516-2.939.628-4.669.599.371-1.107.704-2.165 1.473-3.068l.63-.716 1-1.173 1 .005.047-.577z" fill="#18c7d9"/><path d="m800.129 924.073c2.867.768 4.658 1.348 6.183 3.988l-.562.607c-2.027.03-4.124-.068-6.107.394.648-1.829.652-3.067.486-4.989z" fill="#0faab8"/><path d="m1021.82 1022.25 2.18-.25v2h-16.1l-.83-1.44c4.82.02 9.99.4 14.75-.31z" fill="#fef023"/><path d="m250.007 1022.47c2.374.03 14.619-.43 15.95.26 2.823.59 5.811.17 8.477.76l-.073.51h-23.303z" fill="#fdf567"/><path d="m537.298 942.145c1.966.519 2.844.994 4.101 2.605.254 1.683.484 1.748-.497 3.102-2.33.592-4.418.511-6.786.406.868-.458 1.004-.54 1.562-1.258.276-1.942.595-3.174 1.62-4.855z" fill="#a4d1ad"/><path d="m519.056 931.976 2.376.166c.596 1.083.484.521.432 1.574-.083 1.699-.096 2.588.453 4.184l.102.529c-1.605.136-3.064.191-4.669.033-1.196-1.545-1.168-1.849-1.341-3.712.52-1.421 1.464-1.949 2.647-2.774z" fill="#e7e2a8"/><path d="m501.457 937.614c-.508-.493-.838-.909-1.041-1.614-.318-1.107-.135-2.356.592-3.25 1.337-1.644 3.633-1.944 5.586-1.809 2.54.177 3.803.72 5.413 2.628-2.605-.247-5.213-.043-7.822.079-.831 1.324-1.626 2.865-2.728 3.966z" fill="#e7e2a8"/><path d="m419.315 932.536 1.435.027.67.937c-.3 1.658-.524 2.235-1.67 3.47l-6.875-.008-1.875-.061-.556-.651c1.634-2.367 6.23-2.972 8.871-3.714z" fill="#fdfabc"/><path d="m534.719 952.491 6.416-.276c.333 2.147.418 4.109.327 6.279l-6.176-.054z" fill="#18c7d9"/><path d="m582.509 923.75.724-.101c3.086-.404 6.483-.894 9.017 1.065.261 1.514.31 1.464-.5 2.759-1.22.337-2.481.497-3.75.52-3.162.057-3.672-1.132-5.75-3.234z" fill="#18c7d9"/><path d="m0 992.875c.333333.542.771596 1.031 1 1.625.31344.815-.601582 2.05.46318 2.334l.41486 25.176-.62804-2.26-.3125 1.69-.9375.56z" fill="#fdfabc"/><path d="m501.457 937.614c1.102-1.101 1.897-2.642 2.728-3.966 2.609-.122 5.217-.326 7.822-.079.511 1.369.559 1.974.243 3.401-2.607 2.219-6.715 1.543-9.985 1.417z" fill="#fdfabc"/><path d="m541.135 952.215c2.245-.103 4.083-.093 6.253.535.994 1.036 1.875 1.992 2.034 3.5.058.543-.07 1.029-.172 1.549-1.961 1.175-5.467.662-7.788.695.091-2.17.006-4.132-.327-6.279z" fill="#0cb7c3"/><path d="m567.755 923.75c2.501-.779 7.586-.736 9.995.233.373 1.494-.282 2.856-.745 4.267-1.807.346-4.371.923-6.179.676-1.028-.14-2.3-1.062-2.861-1.926-.754-1.163-.44-2.003-.21-3.25z" fill="#18c7d9"/><path d="m511.361 923.138c3.609-.336 7.331.189 10.932.511l-2.543 4-2 .062c-4.777-.02-6.868-.949-11.057-3.191z" fill="#c7d3ac"/><path d="m521.412 977.12 11.044-.187c4.924 1.279 9.516 1.485 14.59 1.501l-.306 2.316-5.999.635c-4.107.72-10.225-.026-14.495-.043l5.707-.552c.609-1.015.474-.788.297-1.834-3.318-1.603-7.226-1.563-10.838-1.836z" fill="#18c7d9"/><path d="m534.116 948.258c-2.132-.086-6.427.302-7.965-1.008.132-1.567.007-3.342 1.099-4.573 3.432-.677 6.561-.68 10.048-.532-1.025 1.681-1.344 2.913-1.62 4.855-.558.718-.694.8-1.562 1.258z" fill="#c7d3ac"/><path d="m461.675 923.098 1.413-.068c1.842-.065 3.32-.115 4.75 1.22l-.379 1.431c-.813 2.302-3.863 3.334-5.894 4.345l-.102-.067c-2.556-1.395-4.802-3.007-7.143-4.734 2.467-.935 4.768-1.611 7.355-2.127z" fill="#e7e2a8"/><path d="m549.285 923.179c2.17-.114 7.192-.394 8.965.861-.054.683-.065 1.542-.28 2.21-.576 1.791-1.92 2.205-3.436 3.022-2.293.416-4.48-.094-6.453-1.378-1.119-.728-1.304-.911-1.564-2.144.978-1.457 1.109-1.844 2.768-2.571z" fill="#18c7d9"/><path d="m436.224 922.75c3.568.889 6.654-.659 10.103 1.432l-4.755 3.779c-2.257.696-4.475.984-6.822.495-1.354-.282-1.96-.843-2.673-1.956 1.045-1.507 2.722-2.614 4.147-3.75z" fill="#fdfabc"/><path d="m519.056 931.976c2.605-.975 6.06-1.424 8.676-.275 1.305.574 2.249 1.397 2.649 2.788.218.757.179 1.686-.131 2.417-.218.514-.647.978-1 1.403l-6.831.12-.102-.529c-.549-1.596-.536-2.485-.453-4.184.052-1.053.164-.491-.432-1.574z" fill="#faf095"/><path d="m621.335 923.704c3.624-.578 7.393-.16 10.915.769.283 1.421.144 1.503-.5 2.826l-3.584.743-3.166 1.114c-2.86-1.205-6.203-1.81-8.347-4.16l.419-.842z" fill="#18c7d9"/><path d="m492.141 923.147c3.199-.125 8.907-1.094 11.484.839l-.077 1.014c-.967 1.453-1.695 2.299-3.167 3.25-.778.099-1.363.069-2.144 0-2.845-.253-7.721-.903-9.701-3.25 1.007-1.405 1.979-1.371 3.605-1.853z" fill="#d4d4be"/><path d="m476.374 923.187.008-.016c2.918-.183 6.009-.863 8.413 1.018l-.282 1.811c-1.32 1.637-1.325 1.685-3.388 2.055l-8.381.012c-.934-1.279-1.973-2.224-2.138-3.817 1.825-.658 3.852-.8 5.768-1.063z" fill="#e7e2a8"/><path d="m635.178 941.356c3.676.478 9.704-.253 12.276 2.394.259 1.831.405 2.827-.453 4.5-2.385.455-5.173.157-7.613.142-1.624-2.174-2.872-4.677-4.21-7.036z" fill="#18c7d9"/><path d="m639.16 923.75c.429-.141.617-.222 1.116-.271 3.236-.317 10.4-.648 12.974 1.212.219 1.656.41 1.837-.5 3.317-3.614.013-10.195.892-13.439-.354-.968-.373-.797-.521-1.186-1.404z" fill="#11d1d5"/><path d="m458.913 941.25 2.815-.165c1.799.021 5.031.329 6.279 1.665-.547 2.051-2.232 3.34-3.7 4.788l-8.775.266c.099-1.331.413-3.3.901-4.554.555-1.429 1.159-1.465 2.48-2z" fill="#e7e2a8"/><path d="m526.851 923.75c2.884-.786 9.113-.795 12.149-.256 1.372.244 1.635.961 2.435 2.006l-1.185 1.782c-.546.417-1.061.659-1.719.886-3.074 1.062-8.706.31-11.494-1.217-.607-1.379-.445-1.69-.186-3.201z" fill="#53ecee"/><path d="m575.713 931.75c1.379-.232 3.271-.239 4.604.209l.683.25c.774-.609.817-.465 1.75-.489 1.542 1.122 2.116 1.686 2.668 3.53-.409 1.598-.426 1.731-1.668 2.799-1.776.34-3.732.649-5.538.413-2.162-.283-3.244-.77-4.555-2.526-.01-2.21.682-2.522 2.056-4.186z" fill="#18c7d9"/><path d="m598.641 923.25c2.542-.767 10.805-.556 13.289.337.236.522.403.81.491 1.413.236 1.624-.628 2.379-1.671 3.411l-2 .391c-1.376-.547-3.001-1.335-4.5-1.269-1.883.082-2.914.981-4.819.099-1.073-1.102-1.592-1.542-1.814-3.132z" fill="#18c7d9"/><path d="m432.622 931.505c2.249-.023 4.686.357 6.328 2.024 1.09 1.107 1.058 1.247 1.078 2.721-1.131 1.546-2.211 1.975-3.957 2.692-2.163.093-4.329.441-6.321-.545-1.338-1.664-1.148-2.079-1.223-4.147 1.11-1.59 2.341-2.015 4.095-2.745z" fill="#e7e2a8"/><path d="m632.696 951.75c1.664-.155 3.922-.144 5.554.212 1.364.297 2.181 1.346 2.797 2.538.588 1.138 1.028 2.452.665 3.71l-1.962.276c-3.053.024-7.246.699-9.699-1.236l-.02-3.5c.92-1.49.991-1.425 2.665-2z" fill="#18c7d9"/><path d="m661.264 923.75c3.086-.236 11.185-1.122 13.688.263.832 1.53 1.082 2.093.877 3.823l-1.579.707c-2.66.075-5.504-.619-8.078-.24-1.327.195-3.226.609-4.32-.258-1.422-1.126-1.599-2.049-1.738-3.795z" fill="#11d1d5"/><path d="m818.595 923.201 1.501-.088c3.757-.088 6.404.987 9.099 3.634.891.875 1.709 1.349 1.735 2.62l-3.265.463-4.165.208c-3.176-2.159-6.514-1.595-8.499-5.288l.479-1z" fill="#53ecee"/><path d="m760.298 955.976c-1.006-.679-1.931-1.854-2.795-2.726l.247-1.113c3.635-2.751 7.962-2.085 12.271-1.704 2.411.213 3.032 1.666 4.442 3.395-4.296 1.496-9.618 2.172-14.165 2.148z" fill="#18c7d9"/><path d="m415.511 923.576 12.989.299.454.625-1.057 2.25c-1.26 1.515-4.766.787-6.617.737-1.701.55-3.274 1.562-4.831 2.436-2.346-.64-4.415-1.437-6.623-2.448 2.041-1.071 3.84-2.526 5.685-3.899z" fill="#fdfabc"/><path d="m465.897 951.582c2.214-.168 4.25-.374 6.44.16.778.189 2.334.636 2.663 1.417.47 1.115.305 3.265-.303 4.307-.411.703-2.295.759-3.097.906l-6.85-.075-1.601-2.056-.399-.615-.454-.677c.929-1.648 2.037-2.345 3.601-3.367z" fill="#fbdb80"/><path d="m511.884 941.75c1.611-.235 3.275-.201 4.9-.162 2.018.049 4.235.112 5.699 1.662.051.705.163 1.537.065 2.25-.199 1.448-.71 2.05-1.798 2.935-1.711.032-8.254.623-9.264-.623-1.176-1.451-1.537-3.75-1.28-5.562z" fill="#c7d3ac"/><path d="m832.075 930.293c2.685.168 5.918 3.241 8.018 4.866-3.022.649-5.469 1.825-8.343 2.796l-2-.492c-3.807-1.255-4.898-2.794-6.706-6.151z" fill="#13c0b4"/><path d="m582.644 941.75 5.417-.145c2.259-.178 3.745-.226 5.635 1.205.727 1.481 1.782 3.078 1.554 4.772-3.115 1.741-9.11.886-12.702.847z" fill="#18c7d9"/><path d="m486.284 931.25c.84-.307 1.514-.46 2.421-.455 2.349.015 6.077 1.855 7.72 3.455-.123.581-.172.924-.413 1.5-.687 1.641-1.614 1.812-3.125 2.335-2.789.441-5.979.746-8.637-.303-1.042-1.299-1.433-1.796-1.54-3.532.876-1.664 1.944-2.145 3.574-3z" fill="#e7e2a8"/><path d="m652.826 931.066.572-.052c2.076.026 3.663 1.385 5.089 2.736.176.739.532 1.232.114 1.904-1.514 2.432-3.037 2.681-5.687 3.313l-4.414-.943c-1.5-.396-2.389-.763-3.06-2.274-.521-1.174-.674-2.02-.19-3.183 2.509.053 4.408-.417 6.744-1.214z" fill="#11d1d5"/><path d="m546.867 941.153c1.704-.097 3.349-.107 5.048.112 2.202.283 4.083.636 5.483 2.485-.018 1.609-.058 2.563-.914 4l-1.734.422c-2.616.035-8.385.543-10.162-1.172-.052-1.44-.16-2.842.336-4.222.445-1.237.82-1.085 1.943-1.625z" fill="#18c7d9"/><path d="m471.075 930.636c3.211.182 4.767.734 6.953 3.114.12 1.277.193 2.137-.628 3.209-1.358 1.773-3.282 1.453-5.282 1.576-2.8-.323-4.82-.228-6.923-2.215-.016-1.097-.188-1.536.39-2.514 1.226-2.075 3.287-2.634 5.49-3.17z" fill="#e7e2a8"/><path d="m539.205 931.75c1.552-.348 3.198-.41 4.785-.274 2.299.197 3.466.807 4.901 2.524l-.304 2.5c-.551 1.57-1.444 1.599-2.837 2.147l-.497.134c-2.594.478-6.566.28-8.742-1.31-.669-1.407-.683-1.662-.544-3.221.876-1.435 1.782-1.82 3.238-2.5z" fill="#18c7d9"/><path d="m667.426 931.664c2.338-.147 5.163-.206 7.418.499 2.132.668 3.028 1.408 4.121 3.337-1.163 1.679-3.32 2.197-5.172 3.025l-1.043.369-6.937-1.067-.969-.077c-1.09-1.282-.83-1.62-.777-3.25 1.067-1.4 1.712-2.166 3.359-2.836z" fill="#18c7d9"/><path d="m806.189 930.25c.467-.116.813-.228 1.318-.214 2.706.076 8.06 2.075 9.658 4.214-.055 1.469.001 1.88-.77 3.103l-2 .287c-3.676-.39-7.815-.481-11.247-1.89-.747-1.461-.573-1.853-.398-3.441 1.076-1.314 1.823-1.602 3.439-2.059z" fill="#0cb7c3"/><path d="m528.163 962.458 9.715-.005c1.385 2.251 3.012 4.015 4.215 6.359l.455.639-13.989.059z" fill="#acbab6"/><path d="m612.742 931.043c1.893-.106 3.943-.135 5.758.504 1.092.385 2.241.995 2.537 2.203.358 1.46.116 2.884-.638 4.105l-4.667.722c-2.553-.099-5.167-.409-7.115-2.231-1.293-1.21-1.505-1.345-1.536-3.096z" fill="#11d1d5"/><path d="m819.781 940.61c2.876-.56 5.189.401 7.693 1.772 2.119 1.16 3.422 2.302 4.067 4.618-1.18.931-2.374.876-3.834 1.108l-1.928.097c-5.378.104-7.421-2.98-11.019-6.425z" fill="#18c7d9"/><path d="m955.026 1022.63 52.044-.07.83 1.44h-62.824l2.715-1.01z" fill="#fbdb80"/><path d="m619.397 958.707c-2.999-.829-8.012-.318-11.271-.445l1.791-6.012.636-.252c3.152-1.147 11.031-.746 13.934.532l-.94.648-.047.577-1-.005-1 1.173-.63.716c-.769.903-1.102 1.961-1.473 3.068z" fill="#0cb7c3"/><path d="m593.099 930.75c1.161-.191 1.13-.085 2.151.32l.748-.152c1.633-.224 3.421.309 4.654 1.426 1.347 1.221 1.246 2.51 1.356 4.156-.795 1.464-.832 1.427-2.383 2.064-2.137.015-6.456.514-8.321-.251-.668-.274-.869-1.045-1.148-1.665-.646-1.434-1.077-2.935-.51-4.398z" fill="#0cb7c3"/><path d="m485.955 951.617c3.051-.141 6.066.288 9.092.631-.536 1.562-1.054 3.894-2.15 5.139-.74.842-2.347.68-3.451.795-2.599-.043-7.594.527-9.696-.753-.234-1.53-.375-2.217.3-3.679 1.73-1.499 3.729-1.695 5.905-2.133z" fill="#fdfabc"/><path d="m831.54 958.492c-3.169-1.597-5.352-3.385-7.45-6.232 2.25-1.355 7.486-1.611 10.255-2.058 3.147 1.387 5.094 3.676 7.193 6.272l-6.145 1.609c-1.626-.343-2.385-.362-3.853.409z" fill="#0cb7c3"/><path d="m796.19 935.25c1.205 1.658 3.161 2.049 4.984 2.804 2.671 1.107 7.352 3.337 9.091 5.652.902 1.201.738 1.439.485 2.822-.777.353-1.441.66-2.309.686-3.893.119-7.672-1.473-10.258-4.394-1.921-2.169-2.199-4.804-1.993-7.57z" fill="#0cb7c3"/><path d="m605.334 940.558c2.555-.006 5.496 1.006 7.384 2.692.692 1.651.788 2.247.428 4-1.376 1.241-2.223 1.092-4.029 1.323-2.833-.001-5.732.377-8.026-1.581-.62-1.587-1.731-3.537-1.341-5.191 1.899-.141 3.751-.749 5.584-1.243z" fill="#18c7d9"/><path d="m619.296 941.25c3.037-.253 8.531-.466 10.954 1.714 1.446 1.299 1.337 3.019 1.512 4.786l-1.212 1c-1.184.202-2.352.225-3.55.122-2.21-.188-7.223-.751-8.466-2.615-.819-1.229-.803-3.134-.466-4.507z" fill="#18c7d9"/><path d="m493.082 941.595c1.534-.16 3.179-.226 4.668-.634l.922.299c3.089.959 5.447-.227 7.275 2.99-.378 1.797-.416 2.187-1.697 3.601l-7.059.187-1.143-.01c-2.05-.068-3.56.255-5.026-1.278-.077-1.311-.401-3.061.185-4.264.342-.702 1.185-.69 1.875-.891z" fill="#fdfabc"/><path d="m497.191 948.038-1.143-.01c-2.05-.068-3.56.255-5.026-1.278-.077-1.311-.401-3.061.185-4.264.342-.702 1.185-.69 1.875-.891.231 1.676.884 1.413 1.418 2.655.371.864-.45.754.377 2.048l.786-.287c.794-.275 1.484-.445 2.306-.578l.948-2.183.583-.252.518.752c-.801 1.648-1.615 2.925-2.827 4.288z" fill="#faf095"/><path d="m596.374 951.664c1.464-.391 3.81-.106 5.376-.131 1.326.723 2.055 1.668 2.5 3.111.435 1.411.674 2.436 0 3.73l-4.629.525c-3.06.102-6.042.612-8.727-1.149-.444-1.494.042-3.009.331-4.5 1.486-1.328 3.221-1.273 5.149-1.586z" fill="#0cb7c3"/><path d="m689.432 923.702c2.494-.134 4.571-.012 7.035.442 1.68 1.327 2.426 3.076 3.388 4.937l-9.47.014c-3.148-.031-6.385-.027-9.385-1.09-1.203-1.219-1.249-1.315-1.528-3.005 1.713-1.344 7.563-1.118 9.96-1.298z" fill="#11d1d5"/><path d="m557.149 931.25c2.457-.403 5.144-.352 7.601-.045 1.71 1.076 3.441 2.608 3.957 4.653.297 1.18.164 1.417-.409 2.392l-1.355-.262c-3.527-.081-9.037 1.194-12.193-.228-.614-1.392-.834-2.244-.387-3.76.489-1.659 1.403-1.988 2.786-2.75z" fill="#0cb7c3"/><path d="m452.669 951.719c3.586.209 5.549.739 8.051 3.531l-2.788 4.147-5.308-.907-10.109-.447 1.958-2.33c2.944-3.425 3.819-3.649 8.196-3.994z" fill="#e7e2a8"/><path d="m520.081 952.583c4.316-1.203 10.22-.676 14.638-.092l.567 5.949-15.123-.239z" fill="#a4d1ad"/><path d="m628.204 930.75c1.141.129 2.215.99 3.296 1.116.901.105 3.332-.97 4.25-1.295 2.016.703 3.355 1.317 4.881 2.829.752 1.603.481 2.546.119 4.184l-.495.563c-.813.712-9.568.606-10.659.094-1.31-.614-2.598-2.883-2.737-4.241-.156-1.514.401-2.19 1.345-3.25z" fill="#13c0b4"/><path d="m577.459 951.701 2.365-.266c2.167-.166 3.818-.105 5.52 1.315.74 1.538 1.627 3.017 1.736 4.75-1.299 1.063-2.813.977-4.413 1.099l-10.734-.162c.058-1.878-.309-4.724.718-6.26z" fill="#18c7d9"/><path d="m799.643 929.062c-1.275.466-2.759 1.572-4.002 1.848-1.67.369-5.035-.343-6.86-.468-2.027-1.907-3.504-3.352-4.554-6.017l.773-.571c4.96-.424 10.239-.881 15.129.219.166 1.922.162 3.16-.486 4.989z" fill="#18c7d9"/><path d="m477.929 941.16 2.803-.136c2.109.001 3.527.433 5.018 1.861.028 1.296-.005 2.767-.815 3.865-1.505 2.04-3.544 1.718-5.83 1.928-1.55-.032-4.145.163-5.513-.596-1.565-.867-2.528-1.659-3.084-3.332.187-.51.242-.747.589-1.226 1.48-2.041 4.549-1.965 6.832-2.364z" fill="#e7e2a8"/><path d="m693.221 962.25 11.583.43c1.524 2.401 2.599 4.703 3.622 7.35l-11.426-.057c-1.268-.212-1.612-.87-2.305-1.894-1.231-1.819-1.909-3.66-1.474-5.829z" fill="#0cb7c3"/><path d="m500.866 952.25c3.183-.172 12.464-.878 15.136.75.276.927.603 1.871.42 2.845-.27 1.441-.508 1.464-1.672 2.181l-15.991.037.806-5.313z" fill="#e7e2a8"/><path d="m647.444 951.75c.84-.203 1.606-.288 2.47-.317 5.736-.192 7.867 2.505 11.836 6.188v.765l-2.375.327c-4.257.241-10.048.899-14.084-.463-.477-.944-.678-1.016-.544-2.125.246-2.027 1.096-3.19 2.697-4.375z" fill="#0cb7c3"/><path d="m861.048 937.54c.483-.027.689-.055 1.202.003 3.008.342 10.728 6.815 12.71 9.457l-.446.659-2.393.27c-1.289.171-2.731.437-4.029.322-4.247-.374-8.594-5.577-10.991-8.751l.149-.628z" fill="#0cb7c3"/><g fill="#18c7d9"><path d="m653.183 942.25.675-.205c3.706-.574 12.565-.665 15.431 1.653.273 1.872.502 3.411.133 5.28l-1.172.497c-1.42-.571-1.168-1.189-2.256-1.868-.809-.505-4.745 3.097-10.494.43-1.735-1.879-2.141-3.255-2.317-5.787z"/><path d="m563.22 941.75c3.246-.115 9.884-1.054 12.799.345.864.414 1.095.678 1.274 1.655.258 1.403-.269 3.083-1.043 4.214-2.795 1.078-10.791.908-13.597-.119-.936-1.709-.673-3.442-.598-5.329z"/><path d="m557.32 951.682c3.08-.278 5.769.045 8.806.497.215 1.577.391 3.15.939 4.654l.349.917-.414.672-3.588.233c-2.563.176-9.051.886-11.162-.386-.339-1.634-.13-3.22 0-4.867 1.321-1.687 3.023-1.441 5.07-1.72z"/><path d="m740.821 924.25 2.519-.21c2.942-.14 10.072-.896 12.143 1.205 1.159 1.177 1.343 2.944 1.418 4.505l-1.151 1.018c-2.862 1.025-6.114.74-9.126.761-2.54-1.848-4.798-3.886-6.545-6.513z"/></g><path d="m450.195 930.546.494-.005c3.634.124 7.008 1.007 9.561 3.682l-.22 1.277c-1.28 1.865-3.459 2.925-5.349 4.105-2.725-.288-5.075-1.066-7.931-1.145-.516-.49-1.166-1.035-1.567-1.639-.784-1.18-.917-1.983-.619-3.321 1.766-1.502 3.501-2.148 5.631-2.954z" fill="#e7e2a8"/><path d="m663.816 952.25 10.89-.191c2.11.208 4.54.752 5.93 2.441-.016 1.658-.072 2.657-.886 4.119l-.625.233c-2.912.685-10.56.692-13.14-.69-1.388-.743-2.639-2.42-2.92-3.954-.175-.956.258-1.2.751-1.958z" fill="#18c7d9"/><path d="m682.89 931.75.895-.191c4.241-.535 9.192.108 13.465.459 1.668.138 3.714.089 5.107 1.081.249 1.558.164 2.707-.107 4.257-3.941.678-8.329-.639-12.073.038-.737.133-1.043.342-1.818.121-1.747-.5-3.606-.566-4.976-1.765-.486-1.454-.903-2.452-.493-4z" fill="#18c7d9"/><path d="m440.882 941.688 6.618-.384c1.68.013 2.047.286 3.25 1.441.109 1.768-.229 2.924-1.49 4.27-1.494 1.594-2.021 1.338-4.135 1.433-3.577.068-7.396.401-10.927-.15l-.628-1.548c.109-1.589.129-2.557 1.18-3.856 1.807-1.013 4.102-1 6.132-1.206z" fill="#e7e2a8"/><path d="m845.023 923.319c2.112.8 5.662 1.643 7.226 3.238 1.992 2.033 4.219 3.437 6.601 4.974l-7.32.117c-.258 1.151-.62 1.836-1.28 2.81-2.487-.478-4.088-2.28-6.047-3.752-2.681-2.013-5.412-3.817-8.302-5.513z" fill="#18c7d9"/><path d="m672.029 962.09c4.306-.1 8.578-.348 12.821.545 1.934 1.537 2.673 5.373 3.374 7.731l-14.374-.371c-.93-2.634-1.392-5.158-1.821-7.905z" fill="#11d1d5"/><path d="m834.143 939.053c3.733-.149 7.857-.418 11.526.353 4.892 1.029 6.441 4.027 9.014 7.93-3.139.339-6.651.989-9.768.324-4.991-1.064-8.077-4.602-10.772-8.607z" fill="#13c0b4"/><path d="m763.676 924.25c3.322-.582 7.757-.647 11.14-.297 1.935.2 4.51 1.109 5.68 2.797.818 1.18.991 2.085.754 3.437l-1.5.649c-1.899.342-9.903 1.484-11.506.646-2.179-1.139-5.434-4.424-6.237-6.732z" fill="#11d1d5"/><path d="m425.354 952.14 15.473-.208-1.363 2.068c-.546.768-1.858 2.911-2.568 3.367-1.231.792-4.886.994-6.435 1.275l-8.772.79c-2.124.077-2.999-.065-4.58-1.537l.141-.825c2.644-1.844 5.205-3.51 8.104-4.93z" fill="#e7e2a8"/><path d="m630.091 961.75 14.37.464c.011 2.203.443 5.216-.461 7.207l-1.75.154-7.25-.093c-1.933.024-3.902.47-5.75-.227-1.488-2.1-1.614-2.435-1.719-5.005.889-1.573.945-1.723 2.56-2.5z" fill="#0cb7c3"/><path d="m409.032 962.217c4.509-.344 8.583.258 13.008.983-1.637 2.426-3.504 4.482-5.491 6.619l-6.174.092-12.249.046c2.568-2.501 7.466-6.702 10.906-7.74z" fill="#fbdb80"/><path d="m659.319 962.233 8.152.346.14 7.612c-3.077 0-5.955-.199-8.997-.664l-6.95.051-2.493-7.131z" fill="#0cb7c3"/><path d="m679.585 941.277 10.386-.472c2.871 1.88 4.339 4.264 5.501 7.445l-.472.635-2.51-.361-14.49-.092c-.63-.432-1.16-.798-1.509-1.506-.816-1.657-1.293-3.603-.741-5.354z" fill="#0cb7c3"/><path d="m718.336 923.962 15.664.036c1.955.224 3.086 1.008 4.25 2.59.954 1.296 1.248 2.587.986 4.162-3.343 1.131-12.205 1.579-15.484.284-2.903-1.147-4.256-4.421-5.416-7.072z" fill="#18c7d9"/><path d="m831.54 958.492c1.468-.771 2.227-.752 3.853-.409 5.008.612 9.081.106 12.523 4.461 1.271 1.607 2.912 3.643 2.637 5.811-.071.558-.067.62-.561.85-2.14.999-8.078.105-10.151-.887-3.239-1.55-6.886-6.572-8.301-9.826z" fill="#0faab8"/><path d="m851.246 950.787 8.993-.283c3.315 1.786 4.861 4.038 6.73 7.177l-.419.233-.707.371c-2.628 1.541-4.907 1.308-7.88 1.286-6.127-.58-10.621-4.764-14.943-8.722z" fill="#0cb7c3"/><path d="m418.74 940.732c3.666.453 7.476.259 11.171.247l-4.889 7.031-10.59-.118-12.21-.823c1.564-1.655 3.404-3.719 5.496-4.693 2.985-1.391 7.74-1.334 11.022-1.644z" fill="#e7e2a8"/><path d="m376.449 929.261c2.299-1.591 5.066-3.887 7.63-4.939 2.673-1.098 6.015-.827 8.85-.84 5.379-.026 10.873-.223 16.188.72-2.501 1.705-4.933 3.332-7.092 5.471l-23.88.444z" fill="#faf095"/><path d="m393.348 952.042c4.236-.064 9.369-.233 13.533.494 1.614.282 2.326-.143 3.869-.306 2.785-.295 5.719-.213 8.524-.28-1.862.853-3.94 2.101-5.95 2.457-1.861.329-2.538.334-3.957 1.634-.727.665-1.255 1.155-2.192 1.503l-.794.273c-8.422 1.768-17.448 1.293-26.016 1.182 3.1-3.065 8.751-4.215 12.491-6.631z" fill="#faf095"/><path d="m870.328 951.604c3.239-.137 7.801-1.069 10.422 1.019 1.826 1.455 3.384 3.302 5.191 4.809 3.743 3.12 12.214 8.475 12.92 13.318-.858.306-1.154.407-2.026.368-5.503-.241-11.681-7.59-15.886-10.868-3.78-2.946-7.28-5.089-10.621-8.646z" fill="#0cb7c3"/><path d="m431.487 962.662 21.631-.133c-1.342 2.257-2.519 4.495-3.475 6.945l-6.146.01-21.044.464c2.76-3.037 5.481-5.239 9.034-7.286z" fill="#ffdf20"/><path d="m859.097 961.739c3.931-.201 7.874-.437 11.81-.285 1.467.056 3.06-.105 4.36.606 1.94 1.062 7.911 6.269 8.513 8.19l-2.405.013c-5.119-.152-12.234 1.366-17.024-.177-3.857-1.243-6.051-4.427-7.823-7.836z" fill="#0faab8"/><path d="m710.038 962.247c4.869.15 22.806-1.014 25.881 1.527 1.72 1.422 2.19 3.493 2.331 5.608-1.91.875-4.343.569-6.407.547l-17.306-.68c-1.937-2.228-3.179-4.386-4.499-7.002z" fill="#0cb7c3"/><path d="m0 875.968 1-.218-.120703.569c-.179108.895-.119645.555-.198043 1.579l.761046.003.09901 83.896-.01757 23.892c-.00233 3.513.43056 7.709-.06056 11.145-1.064762-.284-.14974-1.519-.46318-2.334-.228404-.594-.666667-1.083-1-1.625z" fill="#edebdb"/><path d="m375.215 962.583 23.604.06c-.605 1.302-1.649 2.41-2.613 3.466-1.681 1.839-3.064 3.051-5.615 3.173l-5.046.388c-6.294.784-13.426.524-19.749-.045 2.736-3.576 5.262-5.357 9.419-7.042z" fill="#ffdf20"/><path d="m812.429 951.553 2.821-.227c1.256.756 1.942 1.68 2.533 2.993 1.766 3.923 5.717 6.52 8.877 9.326 1.488 1.321 3.035 2.619 3.159 4.68-1.735 1.061-3.406 1.092-5.398 1.267l-3.823-.712c-5.167-1.278-11.878-10.433-14.578-14.852z" fill="#13c0b4"/><path d="m774.463 953.828c4.005 4.72 8.46 10.121 11.352 15.593l-10.454-.084c-.855-.009-2.385.136-3.132-.34-.431-.275-.987-.991-1.349-1.358l-10.582-11.663c4.547.024 9.869-.652 14.165-2.148z" fill="#03958a"/><path d="m687.584 953.25c5.233-1.033 11.938-.127 17.249.05l23.129.507c1.72 1.508 3.043 2.957 4.345 4.839l-1.125.604c-6.498.251-39.276.98-42.447-1.378-1.151-.856-2.469-2.428-2.657-3.872z" fill="#18c7d9"/><path d="m363.582 937.204 12.867-7.943 1.696.856.355.835c4.623 1.932 11.626.97 16.737 1.334 2.293.164 3.737-.04 5.648 1.278.492 1.408.684 2.028.365 3.543-3.43 2.64-23.109 1.96-28.279 2.086-1.832.044-5.732-.183-7.287.524-.758.344-1.13 1.123-1.262 1.859l.03.736-1.197-.812.62-1.125-.522-.272-5.229 3.108c1.085-1.425 2.116-2.476 3.621-3.461.828-.542 1.077-.792 1.477-1.695z" fill="#ffdf20"/><path d="m779.592 950.25c2.909-.676 6.791-.14 9.587.943 4.18 1.62 7.266 6.684 10.161 9.963 2.239 2.536 4.722 4.686 6.113 7.833l-.703 1.025-11.485-.002-9.818-12.098c-1.571-1.819-4.62-4.276-5-6.664z" fill="#0cb7c3"/><path d="m743.044 952.213c2.349-.11 5.945-.3 8.206.378 1.251.376 1.766 1.028 2.274 2.159-1.358-.005-2.607-.317-3.722.5l4.616.782c2.143.348 3.763 2.492 5.332 3.915 3.326 3.016 7.078 5.795 10 9.206l-.5.305-3.129-.769c-3.328-.42-6.767-.633-10.121-.637-1.097-.001-4.968.59-5.775.239-1.48-.643-3.782-3.535-4.853-4.759-3.208-3.668-6.075-7.27-10.019-10.188l-.729-.535z" fill="#13c0b4"/><path d="m1021.71 871.886c.64 1.431.87 2.037 2.29 2.85v147.264l-2.18.25.19-24.745-.07-12.183.01-49.876-.02-2.678.04-21.915c-.62-2.856-.1-7.169-.12-10.151l-.16-26.897z" fill="#e7e2a8"/><path d="m1021.97 910.853c2.52 4.295 1.46 16.028.25 20.885l-.29 1.03z" fill="#f2e6b8"/><path d="m923.602 976.423c-4.295-3.439-9.774-5.262-14.292-8.436-2.578-1.81-4.748-4.131-7.168-6.136l-11.892-9.778c-6.539-5.225-13.745-9.567-19.875-15.323l.125-.633c2.266-.248 4.866-.03 6.988.863 4.679 1.97 8.854 5.381 13.04 8.187 2.095 1.404 4.4 2.485 6.472 3.916 2.114 1.46 3.971 3.318 6.043 4.855 9.325 6.919 18.484 14.021 28.262 20.302-1.779.696-3.43 1.326-5.305 1.695z" fill="#0cb7c3"/><path d="m308.271 974.221c-.813 2.021-1.744 3.802-1.493 6.029.559.466 1.011.797 1.653 1.158l-1.323.597c-.989 3.085-1.898 6.56-3.599 9.333l-28.41 31.852-.665.3c-2.666-.59-5.654-.17-8.477-.76l21.793-25.587c6.525-7.792 12.393-16.719 20.521-22.922z" fill="#ffe621"/><path d="m0 1022 .9375-.56.3125-1.69.62804 2.26c3.73801.65 7.79494.04 11.59936.15l43.2199.08 80.1327-.16 113.177.39 1.051 1.53h-251.058z" fill="#faf095"/><path d="m528.559 969.51-70.757-.278-.4-.982c.378-1.603.787-2.691 1.999-3.854.991-.952 2.089-1.465 3.444-1.675 6.203-.961 13.722-.211 20.052-.22l45.266-.043z" fill="#fbdb80"/><path d="m537.878 962.453 29.562-.047c3.355.014 8.47-.591 11.561.487 2.112.736 5.674-.249 7.999-.331l16.25-.179c4.357-.101 8.338-.527 12.698.192l-.168 6.93-73.232-.054-.455-.639c-1.203-2.344-2.83-4.108-4.215-6.359z" fill="#18c7d9"/><path d="m923.602 976.423 2.398-.488c1.875-.369 3.526-.999 5.305-1.695 1.44.927 2.998 1.859 4.246 3.037l2.392 2.585.521.58.306.354-307.759.451-90.27.138 5.999-.635.306-2.316c-5.074-.016-9.666-.222-14.59-1.501l54.855.056 28.291.045 16.605-.162z" fill="#11d1d5"/><path d="m587.311 976.989 28.291.045c-1.609.421-3.013.731-4.671.79l-18.375.719c-1.908-.29-3.462-.825-5.245-1.554z" fill="#0cb7c3"/><path d="m363.582 937.204-.36.851c-.4.903-.649 1.153-1.477 1.695-1.505.985-2.536 2.036-3.621 3.461l5.229-3.108.522.272-.62 1.125 1.197.812-.03-.736 20.09.008c4.263.021 9.502-.203 13.593 1.073-.967.968-2.783 3.36-3.901 3.907-.924.452-3.999.309-5.129.395l-28.835 1.027c-2.407.133-5.86-.063-8.084.699-1.028.352-1.906 1.284-2.624 2.065l.468.613 33.183.636c-3.696 1.943-7.842 4.583-11.834 5.733-2.453.707-5.331.067-7.849.397l-15 1.347c-6.494.552-10.864.279-16.047 4.824 1.178-.035 1.907-.311 2.971-.747 3.399-1.393 7.156-1.054 10.772-1.091l18.15.072c-1.567 2.281-2.982 4.535-5.248 6.194-2.695.448-5.406.903-8.139 1.02-3.834.163-25.92.008-27.86 1.203-1.35.833-3.238 3.562-4.375 4.818 11.785.881 23.748.595 35.571.652l56.1-.306 41.46.56 43.779.119c6.535.065 14.161-.65 20.586.226l5.192.1c3.612.273 7.52.233 10.838 1.836.177 1.046.312.819-.297 1.834l-5.707.552-14.043-.061-203.772.127c-.642-.361-1.094-.692-1.653-1.158-.251-2.227.68-4.008 1.493-6.029z" fill="url(#h)"/><path d="m1022.1 850.317c.38-1.779.85-2.962 1.9-4.451v28.87c-1.42-.813-1.65-1.419-2.29-2.85l-.02 1.919c-6.53-.59-13.48-.076-20.06.006l-23.13-.092c-10.474-.086-20.817.189-31.25-1.246-4.482-.616-9.217-2.807-13.534-4.213l-24.039-6.974-17.629-5.143c-4.07-1.216-8.56-1.695-12.048-4.258 4.662-.499 9.842.672 14.545.94l15.195.126 67.698-.415 44.272.411z" fill="#b30402"/><path d="m1022.1 850.317c.38-1.779.85-2.962 1.9-4.451v28.87c-1.42-.813-1.65-1.419-2.29-2.85v-18.939z" fill="url(#i)"/><path d="m782.896 849.914c5.35-.902 10.546-.931 15.951-.942 7.828 2.486 18.617 2.479 23.012 10.582 1.209 2.23 1.806 5.585 1 8.032-.58 1.762-1.967 3.234-3.705 3.908-2.565.994-6.805.549-9.62.586l-23.411.166-135.373.127-33.399-.033c-7.553-.078-15.799-.801-23.262.244-8.597-2.088-16.686-3.829-24.958-7.089-3.345-1.318-6.358-3.414-9.756-4.62l-18.478-6.713c-1.988-.741-3.966-1.146-5.888-2.105 5.08-.763 10.846-.351 16.012-.521l43.229-.716 126.062-.26 36.031-.008c8.836.025 17.763.401 26.553-.638z" fill="#03958a"/><path d="m0 853.603c2.15545-3.243 1.6707-7.961 1.77209-11.822l.09181 4.753c18.3841-1.49 37.4651-.614 55.9161-.555l22.0136.1c5.3977.026 10.6238-.114 15.9899.682 7.4025.967 15.2055.557 22.6705.544l32.608.036 54.272.131 21.092-.03c3.403-.015 7.033.273 10.403-.062 1.772-.177 3.541-.882 5.181-1.548l3.466 1.206c1.068-.146 2-.475 3.02-.808 1.025 1.78 2.171 2.836 3.73 4.158 2.824.123 5.92.073 8.705.551 2.445.42 4.695 1.208 7.208 1.552l266.87-.434c1.922.959 3.9 1.364 5.888 2.105l18.478 6.713c3.398 1.206 6.411 3.302 9.756 4.62 8.272 3.26 16.361 5.001 24.958 7.089-5.4 1.452-11.886.403-17.48.616l-62.182.422-19.927.329-38.082-.319-293.257.331-116.9592-.11-44.39328.11-.36622 3.938-.761046-.003c.078398-1.024.018935-.684.198043-1.579l.120703-.569-1 .218z" fill="#b30402"/><path d="m0 853.603c2.15545-3.243 1.6707-7.961 1.77209-11.822l.09181 4.753.34733 5.316c1.11254-.777.43831-1.606 1.74399-1.796l.32688.946c-.54423.702-.9148 1.046-1.60312 1.572-1.20037 1.498-.71825 3.505-.70185 5.394.04611 5.31.287 10.706-.16861 15.997l-.36622 3.938-.761046-.003c.078398-1.024.018935-.684.198043-1.579l.120703-.569-1 .218z" fill="#fdf567"/><path d="m248.496 846.23c1.025 1.78 2.171 2.836 3.73 4.158 2.824.123 5.92.073 8.705.551 2.445.42 4.695 1.208 7.208 1.552l-26.618.136.407-3.877 3.548-1.712c1.068-.146 2-.475 3.02-.808z" fill="#fdf567"/><path d="m242.01 845.832 3.466 1.206-3.548 1.712-.407 3.877-91.291.355c-.134-2.172-.373-3.723.832-5.641l54.272.131 21.092-.03c3.403-.015 7.033.273 10.403-.062 1.772-.177 3.541-.882 5.181-1.548z" fill="#fef023"/><path d="m1.8639 846.534c18.3841-1.49 37.4651-.614 55.9161-.555l22.0136.1c5.3977.026 10.6238-.114 15.9899.682 7.4025.967 15.2055.557 22.6705.544l32.608.036c-1.205 1.918-.966 3.469-.832 5.641l-112.48-.243c-11.5611-.121-23.5767 1.267-35.07102-.167.68832-.526 1.05889-.87 1.60312-1.572l-.32688-.946c-1.30568.19-.63145 1.019-1.74399 1.796z" fill="#ffe621"/><path d="m6.67883 847.75c1.66834-.303 4.22547-.375 5.70187.5-.3057 1.221-.7605 1.548-1.6307 2.482-1.28968.771-3.02597 1.155-4.5.868-.26069-1.613-.12266-2.311.42883-3.85z" fill="#fdf567"/><path d="m275.099 1023.19 28.41-31.852.954 1.912c6.172.822 13.171.231 19.435.236h39.852l79.886.408 66.362-.51 133.525.139 70.437.469c5.472.279 11.239.681 16.646 1.551l15.155 2.647 72.344 7.13 54.645 2.47 19.857 1.04c5.4.5 10.576 1.67 15.893 2.63 10.292 1.86 20.844 3.19 30.834 6.41 3.587 1.15 6.751 2.06 9.666 4.61l6.026.15-7.235.36-2.715 1.01h-180.716-104.795-33.502-34.129-31.871-65.422-43.719-34.062-56.36-10.489-9.645-36.866-29.139l.073-.51z" fill="#b30402"/><path d="m340.275 1023.48 9.858-.14-.122.66h-9.645z" fill="#efb988"/><path d="m275.099 1023.19 28.28.21.121.6h-29.139l.073-.51z" fill="#f2a09c"/><path d="m360.468 1023.32 67.725.09 22.629.16c5.118-.63 10.333-.4 15.48-.38l21.66.23 6.679.58h-43.719-34.062-56.36z" fill="#efb988"/><path d="m500.05 83.7789c15.366-1.2067 31.367-.1284 46.7 1.0619 20.967 1.6278 41.907 3.681 62.5 8.1607 19.39 4.218 38.637 9.9315 57.368 16.4685 10.566 3.688 20.779 8.2 30.991 12.745l10.539 4.449c16.499 7.81 32.163 17.328 47.288 27.475 21.04 14.115 40.941 29.515 59.314 47.002 9.246 8.801 17.283 18.32 25.67 27.883 15.945 18.179 30.474 37.961 42.83 58.797 1.363 2.297 2.315 4.777 3.605 7.111 8.036 14.536 15.279 29.247 21.77 44.569l7.338 19.499c3.432 9.216 6.917 18.502 9.553 27.987l4.788 19.957c.782 3.761.913 8.234 2.642 11.661l.214.395-.41.514-411.269.266-430.7825.182c.7408-7.579 2.8093-14.412 4.8088-21.715l8.8117-28.909c7.666-21.337 16.269-42.161 26.617-62.338 4.804-9.367 10.873-18.367 16.187-27.457 9.03-15.446 19.113-30.481 30.551-44.293 7.3-8.816 15.381-17.208 23.341-25.442 52.632-54.451 120.756-93.916 194.144-112.7667 34.043-8.7446 69.83-12.6565 104.891-13.2624z" fill="#ffc001"/><path d="m115.566 411.751 292.289.207 254.395-.096 99.75-.027 49.072-.274 87.897.32 20.175-.136c2.543.048 5.633-.256 8.029.505l.347 1.25-.77.962-13.157.011-73.512-.004-148.02.122-337.311-.409-47.149.345-157.601-.073-39.496.006c-3.964-.004-11.0068.891-14.6287-.328l-.2045-1.032c1.8138-1.378 4.2062-1.105 6.4402-1.149z"/></g></svg>